<svg viewBox="0 0 24 24" fill="none" xmlns="http://www.w3.org/2000/svg">
    <path
        d="M7 11.25H6.25V12.75H7V11.25ZM16.75 12.75H17.5V11.25H16.75V12.75ZM13.5303 6.96967L13 6.43934L11.9393 7.5L12.4697 8.03033L13.5303 6.96967ZM17.5 12L18.0303 12.5303L18.5607 12L18.0303 11.4697L17.5 12ZM12.4697 15.9697L11.9393 16.5L13 17.5607L13.5303 17.0303L12.4697 15.9697ZM7 12.75H16.75V11.25H7V12.75ZM12.4697 8.03033L16.9697 12.5303L18.0303 11.4697L13.5303 6.96967L12.4697 8.03033ZM16.9697 11.4697L12.4697 15.9697L13.5303 17.0303L18.0303 12.5303L16.9697 11.4697Z"
        fill="currentColor" />
</svg>