<svg viewBox="0 0 64 64" fill="none" xmlns="http://www.w3.org/2000/svg">
    <path opacity="0.2"
        d="M0 16C0 7.16344 7.16344 0 16 0H48C56.8366 0 64 7.16344 64 16V48C64 56.8366 56.8366 64 48 64H16C7.16344 64 0 56.8366 0 48V16Z"
        fill="currentColor" />
    <path fill-rule="evenodd" clip-rule="evenodd"
        d="M18.565 15.4349C19.346 16.216 19.346 17.4823 18.565 18.2633C11.145 25.6833 11.145 37.7134 18.565 45.1334C19.346 45.9144 19.346 47.1808 18.565 47.9618C17.7839 48.7429 16.5176 48.7429 15.7365 47.9618C6.75449 38.9798 6.75449 24.417 15.7365 15.4349C16.5176 14.6539 17.7839 14.6539 18.565 15.4349ZM45.435 15.4349C46.2161 14.6539 47.4824 14.6539 48.2635 15.4349C57.2455 24.417 57.2455 38.9798 48.2635 47.9618C47.4824 48.7429 46.2161 48.7429 45.435 47.9618C44.654 47.1808 44.654 45.9144 45.435 45.1334C52.855 37.7134 52.855 25.6833 45.435 18.2633C44.654 17.4823 44.654 16.216 45.435 15.4349ZM40.4853 20.4852C41.2663 19.7041 42.5327 19.7041 43.3137 20.4852C49.5621 26.7336 49.5621 36.8642 43.3137 43.1126C42.5327 43.8936 41.2663 43.8936 40.4853 43.1126C39.7042 42.3315 39.7042 41.0652 40.4853 40.2841C45.1716 35.5979 45.1716 27.9999 40.4853 23.3136C39.7042 22.5325 39.7042 21.2662 40.4853 20.4852ZM23.5147 23.3136C24.2958 22.5325 24.2958 21.2662 23.5147 20.4852C22.7337 19.7041 21.4673 19.7041 20.6863 20.4852C14.4379 26.7336 14.4379 36.8642 20.6863 43.1126C21.4673 43.8936 22.7337 43.8936 23.5147 43.1126C24.2958 42.3315 24.2958 41.0652 23.5147 40.2841C18.8284 35.5979 18.8284 27.9999 23.5147 23.3136ZM32 38C35.3137 38 38 35.3137 38 32C38 28.6863 35.3137 26 32 26C28.6863 26 26 28.6863 26 32C26 35.3137 28.6863 38 32 38Z"
        fill="currentColor" />
</svg>
    