<svg viewBox="0 0 64 64" fill="none" xmlns="http://www.w3.org/2000/svg">
    <path opacity="0.2"
        d="M0 16C0 7.16344 7.16344 0 16 0H48C56.8366 0 64 7.16344 64 16V48C64 56.8366 56.8366 64 48 64H16C7.16344 64 0 56.8366 0 48V16Z"
        fill="currentColor" />
    <path
        d="M31.5 27.9475L21.8331 22.2607C20.5739 21.52 19 22.4459 19 23.9273L19 40.0728C19 41.5542 20.5739 42.4801 21.8331 41.7392L31.5 36.0525V40.0728C31.5 41.5542 33.0739 42.4801 34.3331 41.7392L48.0557 33.6666C49.3148 32.9259 49.3148 31.0741 48.0557 30.3334L34.3331 22.2607C33.0739 21.52 31.5 22.4459 31.5 23.9273V27.9475Z"
        fill="currentColor" />
</svg>
    