<svg width="65" height="25" viewBox="0 0 65 25" fill="none" xmlns="http://www.w3.org/2000/svg">
<path fill-rule="evenodd" clip-rule="evenodd" d="M0.0561532 20.6697L7.05615 0.669651L8.94387 1.33035L1.94387 21.3304L0.0561532 20.6697Z" fill="#505050"/>
<path d="M26.384 10.312C28.64 10.864 30.056 12.208 30.056 14.464C30.056 17.248 27.8 19 24.368 19H16.376V2.2H24.488C27.608 2.2 29.6 3.88 29.6 6.304C29.6 8.368 28.304 9.64 26.384 10.312ZM19.28 4.384V9.304H23.576C25.928 9.304 26.816 8.176 26.816 6.856C26.816 5.32 25.664 4.384 23.984 4.384H19.28ZM23.816 16.816C25.592 16.816 27.248 15.976 27.248 14.104C27.248 12.76 26.36 11.368 24.008 11.368H19.28V16.816H23.816Z" fill="#505050"/>
<path d="M33.0399 2.2H35.7279V19H33.0399V2.2Z" fill="#505050"/>
<path d="M44.2629 6.616C48.0069 6.616 50.4069 9.256 50.4069 12.952C50.4069 16.648 48.0069 19.288 44.2629 19.288C40.5429 19.288 38.1189 16.648 38.1189 12.952C38.1189 9.256 40.5429 6.616 44.2629 6.616ZM44.2629 8.8C42.0789 8.8 40.7349 10.552 40.7349 12.952C40.7349 15.328 42.0789 17.104 44.2629 17.104C46.4709 17.104 47.8149 15.328 47.8149 12.952C47.8149 10.552 46.4709 8.8 44.2629 8.8Z" fill="#505050"/>
<path d="M61.4147 6.904H64.1027V19.048C64.1027 22 61.6307 24.04 58.1027 24.04C54.7907 24.04 52.3667 22.336 52.0787 19.528H54.9107C55.1747 20.968 56.3747 21.904 58.1747 21.904C60.0227 21.904 61.4147 20.848 61.4147 19.144V16.96H61.3907C60.7907 17.896 59.4467 18.736 57.6227 18.736C54.1907 18.736 51.8627 16.12 51.8627 12.64C51.8627 9.088 54.2147 6.616 57.5747 6.616C59.4947 6.616 60.7427 7.528 61.3907 8.464H61.4147V6.904ZM58.0307 16.624C60.0947 16.624 61.5587 14.944 61.5587 12.616V12.448C61.5587 10.336 60.0947 8.776 58.0307 8.776C55.9187 8.776 54.5027 10.36 54.5027 12.592C54.5027 14.872 55.9187 16.624 58.0307 16.624Z" fill="#505050"/>
</svg>
