<svg viewBox="0 0 516 290" fill="none" xmlns="http://www.w3.org/2000/svg">
<g clip-path="url(#clip0_8432_1954)">
<path d="M-80.5 166.045L242.636 352.608" stroke="#303030" stroke-width="2" stroke-dasharray="6 6"/>
<path d="M-8.31641 124.371L314.82 310.933" stroke="#303030" stroke-width="2" stroke-dasharray="6 6"/>
<path d="M63.8633 82.6968L386.999 269.26" stroke="#303030" stroke-width="2" stroke-dasharray="6 6"/>
<path d="M136.047 41.0232L459.183 227.586" stroke="#303030" stroke-width="2" stroke-dasharray="6 6"/>
<path d="M208.223 -0.650391L531.359 185.912" stroke="#303030" stroke-width="2" stroke-dasharray="6 6"/>
<path d="M417.219 -46.6853L-15.8676 203.357" stroke="#303030" stroke-width="2" stroke-dasharray="6 6"/>
<path d="M352.594 -83.9983L-80.4926 166.044" stroke="#303030" stroke-width="2" stroke-dasharray="6 6"/>
<path d="M481.844 -9.3728L48.7574 240.67" stroke="#303030" stroke-width="2" stroke-dasharray="6 6"/>
<path d="M546.469 27.9397L113.382 277.982" stroke="#303030" stroke-width="2" stroke-dasharray="6 6"/>
<path d="M611.098 65.2515L178.011 315.294" stroke="#303030" stroke-width="2" stroke-dasharray="6 6"/>
<path d="M675.727 102.565L242.64 352.607" stroke="#303030" stroke-width="2" stroke-dasharray="6 6"/>
<path d="M280.406 -42.3242L603.542 144.239" stroke="#303030" stroke-width="2" stroke-dasharray="6 6"/>
<path d="M352.594 -83.9983L675.73 102.564" stroke="#303030" stroke-width="2" stroke-dasharray="6 6"/>
<path fill-rule="evenodd" clip-rule="evenodd" d="M224.146 144.829L224.454 153.036C224.453 153.591 224.665 154.117 225.045 154.588C225.353 154.982 225.787 155.351 226.347 155.675L247.774 168.045C248.023 168.188 248.022 168.421 247.772 168.566C247.652 168.635 247.489 168.674 247.32 168.674L236.657 168.677C235.813 168.678 235.004 168.485 234.408 168.141L217.33 158.281C212.357 155.411 212.365 150.752 217.347 147.875L223.058 144.579C223.307 144.435 223.711 144.434 223.96 144.578C224.076 144.644 224.142 144.734 224.146 144.829Z" fill="#8E44EC" stroke="#151515" stroke-width="2" stroke-linejoin="round"/>
<path d="M217.33 140.531L234.408 150.39C234.709 150.563 235.065 150.699 235.452 150.79V168.542C235.065 168.45 234.709 168.315 234.408 168.141L217.33 158.282C214.87 156.862 213.628 155.004 213.606 153.14V135.388C213.605 135.354 213.605 135.319 213.606 135.285V135.388C213.628 137.252 214.87 139.11 217.33 140.531Z" fill="#B382F2"/>
<path d="M234.408 150.39L217.33 140.531C214.824 139.084 213.583 137.183 213.606 135.285V153.14C213.628 155.004 214.87 156.862 217.33 158.282L234.408 168.141C234.709 168.315 235.065 168.45 235.452 168.542V150.79C235.065 150.699 234.709 150.563 234.408 150.39Z" stroke="#151515" stroke-width="2" stroke-linejoin="round"/>
<path d="M247.317 150.922C247.487 150.922 247.65 150.883 247.77 150.813C247.881 150.749 247.943 150.668 247.955 150.584V150.52C247.959 150.541 247.959 150.563 247.955 150.584V168.271C247.971 168.376 247.909 168.484 247.77 168.565C247.65 168.634 247.487 168.673 247.317 168.673L236.655 168.677C236.237 168.677 235.828 168.63 235.449 168.54V150.789C235.828 150.878 236.237 150.925 236.655 150.925L247.317 150.922Z" fill="#151515"/>
<path d="M247.77 150.813C247.65 150.883 247.487 150.922 247.317 150.922L236.655 150.925C236.237 150.925 235.828 150.878 235.449 150.789V168.54C235.828 168.63 236.237 168.677 236.655 168.677L247.317 168.673C247.487 168.673 247.65 168.634 247.77 168.565C247.909 168.484 247.971 168.376 247.955 168.271V150.52C247.971 150.624 247.909 150.733 247.77 150.813Z" stroke="#151515" stroke-width="2" stroke-linejoin="round"/>
<path fill-rule="evenodd" clip-rule="evenodd" d="M224.146 127.077L224.454 135.284C224.453 135.839 224.665 136.365 225.045 136.836C225.353 137.23 225.787 137.599 226.347 137.923L247.774 150.293C248.023 150.436 248.022 150.67 247.772 150.814C247.652 150.883 247.489 150.922 247.32 150.922L236.657 150.925C235.813 150.926 235.004 150.733 234.408 150.389L217.33 140.53C212.357 137.659 212.365 133 217.347 130.123L223.058 126.827C223.307 126.683 223.711 126.682 223.96 126.826C224.076 126.892 224.142 126.982 224.146 127.077Z" fill="#8E44EC" stroke="#151515" stroke-width="2" stroke-linejoin="round"/>
<path fill-rule="evenodd" clip-rule="evenodd" d="M243.598 172.555L257.81 172.361C258.771 172.361 259.683 172.237 260.5 172.017C261.183 171.839 261.824 171.588 262.385 171.263L283.854 158.869C284.104 158.725 284.508 158.725 284.757 158.868C284.876 158.937 284.943 159.03 284.942 159.128L284.928 165.284C284.927 165.773 284.589 166.242 283.989 166.589L266.883 176.464C261.9 179.34 253.83 179.345 248.857 176.474L243.158 173.184C242.91 173.041 242.911 172.807 243.16 172.663C243.277 172.596 243.434 172.557 243.598 172.555Z" fill="#8E44EC" stroke="#151515" stroke-width="2" stroke-linejoin="round"/>
<path d="M283.991 148.836C284.591 148.49 284.929 148.021 284.93 147.532L284.945 159.127L284.93 165.283C284.929 165.772 284.591 166.242 283.991 166.588L266.886 176.463C264.38 177.91 261.093 178.63 257.812 178.623V160.872C261.093 160.878 264.38 160.158 266.886 158.712L283.991 148.836Z" fill="#151515" stroke="#151515" stroke-width="2" stroke-linejoin="round"/>
<path d="M243.158 155.432L248.857 158.722C251.329 160.149 254.567 160.866 257.81 160.872V178.624C254.567 178.617 251.329 177.901 248.857 176.474L243.158 173.184C243.03 173.11 242.969 173.012 242.973 172.915V155.182C242.977 155.273 243.039 155.363 243.158 155.432Z" fill="#B382F2" stroke="#151515" stroke-width="2" stroke-linejoin="round"/>
<path fill-rule="evenodd" clip-rule="evenodd" d="M243.598 154.803L257.81 154.609C258.771 154.609 259.683 154.485 260.5 154.265C261.183 154.087 261.824 153.836 262.385 153.511L283.854 141.117C284.104 140.973 284.508 140.973 284.757 141.116C284.876 141.185 284.943 141.278 284.942 141.376L284.928 147.532C284.927 148.021 284.589 148.49 283.989 148.837L266.883 158.712C261.9 161.588 253.83 161.593 248.857 158.722L243.158 155.432C242.91 155.289 242.911 155.055 243.16 154.911C243.277 154.844 243.434 154.805 243.598 154.803Z" fill="#8E44EC" stroke="#151515" stroke-width="2" stroke-linejoin="round"/>
<path d="M223.188 121.556C223.788 121.21 224.126 120.74 224.127 120.251V131.783C224.134 131.805 224.137 131.827 224.137 131.85L224.127 138.003C224.126 138.492 223.788 138.961 223.188 139.308L216.664 143.074C210.632 146.556 209.071 148.181 208.043 150.134C207.534 151.101 207.276 152.079 207.27 153.057V153.131C207.269 153.106 207.269 153.081 207.27 153.057V135.305C207.276 134.327 207.534 133.349 208.043 132.382C209.071 130.429 210.632 128.805 216.664 125.322L223.188 121.556Z" fill="#151515"/>
<path d="M224.127 120.251C224.126 120.74 223.788 121.21 223.188 121.556L216.664 125.322C210.632 128.805 209.071 130.429 208.043 132.382C207.534 133.349 207.276 134.327 207.27 135.305V153.131C207.263 152.129 207.521 151.126 208.043 150.134C209.071 148.181 210.632 146.556 216.664 143.074L223.188 139.308C223.788 138.961 224.126 138.492 224.127 138.003L224.137 131.85C224.137 131.827 224.134 131.805 224.127 131.783V120.251Z" stroke="#151515" stroke-width="2" stroke-linejoin="round"/>
<path d="M217.334 140.529L234.412 150.388C234.713 150.562 235.069 150.697 235.456 150.789V168.54C235.069 168.449 234.713 168.314 234.412 168.14L217.334 158.281C214.874 156.86 213.632 155.002 213.61 153.139V135.387C213.609 135.352 213.609 135.318 213.61 135.283V135.387C213.632 137.25 214.874 139.109 217.334 140.529Z" fill="#B382F2"/>
<path d="M234.412 150.388L217.334 140.529C214.828 139.082 213.587 137.181 213.61 135.283V153.139C213.632 155.002 214.874 156.86 217.334 158.281L234.412 168.14C234.713 168.314 235.069 168.449 235.456 168.54V150.789C235.069 150.697 234.713 150.562 234.412 150.388Z" stroke="#151515" stroke-width="2" stroke-linejoin="round"/>
<path d="M214.128 150.938H225.425V168.325C225.42 168.416 225.357 168.506 225.237 168.575C225.117 168.645 224.955 168.684 224.785 168.684L214.128 168.69C213.672 168.69 213.227 168.634 212.82 168.528V150.777C213.227 150.882 213.672 150.938 214.128 150.938Z" fill="#151515"/>
<path d="M225.425 150.938H214.128M214.128 150.938V168.69M214.128 150.938C213.672 150.938 213.227 150.882 212.82 150.777V168.528C213.227 168.634 213.672 168.69 214.128 168.69M214.128 168.69L224.785 168.684C224.955 168.684 225.117 168.645 225.237 168.575C225.357 168.506 225.42 168.416 225.425 168.325V150.551" stroke="#151515" stroke-width="2" stroke-linejoin="round"/>
<path d="M208.884 148.672L211.88 150.401C212.155 150.56 212.475 150.686 212.823 150.777V168.528C212.475 168.438 212.155 168.311 211.88 168.153L208.884 166.423C200.856 161.789 198.783 159.625 197.421 157.023C196.734 155.711 196.394 154.383 196.402 153.056V135.398C196.402 135.366 196.402 135.335 196.402 135.304V135.398C196.41 136.694 196.75 137.99 197.421 139.271C198.783 141.873 200.856 144.037 208.884 148.672Z" fill="#B382F2"/>
<path d="M211.88 150.401L208.884 148.672C200.856 144.037 198.783 141.873 197.421 139.271C196.734 137.959 196.394 136.632 196.402 135.304V153.056C196.394 154.383 196.734 155.711 197.421 157.023C198.783 159.625 200.856 161.789 208.884 166.423L211.88 168.153C212.155 168.311 212.475 168.438 212.823 168.528V150.777C212.475 150.686 212.155 150.56 211.88 150.401Z" stroke="#151515" stroke-width="2" stroke-linejoin="round"/>
<path fill-rule="evenodd" clip-rule="evenodd" d="M294.688 133.523L284.031 133.529C283.186 133.529 282.376 133.336 281.78 132.992L275.264 129.23C269.244 125.755 266.432 124.857 263.052 124.267C259.672 123.677 256.213 123.679 252.831 124.273C249.449 124.866 246.634 125.767 240.602 129.249L231.975 134.23C231.725 134.374 231.321 134.375 231.073 134.231C230.953 134.162 230.887 134.069 230.887 133.971L230.897 127.818C230.898 127.329 231.236 126.86 231.836 126.513L234.833 124.783C242.876 120.14 246.628 118.939 251.138 118.147C255.648 117.356 260.258 117.353 264.765 118.14C269.273 118.926 273.021 120.123 281.049 124.757L295.142 132.893C295.391 133.037 295.39 133.27 295.14 133.414C295.02 133.484 294.857 133.523 294.688 133.523Z" fill="#151515" stroke="#151515" stroke-width="2" stroke-linejoin="round"/>
<path d="M275.26 111.478L281.777 115.24C282.079 115.415 282.437 115.55 282.826 115.642V133.393C282.437 133.302 282.079 133.166 281.777 132.992L275.26 129.23C269.24 125.754 266.429 124.856 263.048 124.267C261.404 123.98 259.741 123.833 258.078 123.826V106.074C259.741 106.081 261.404 106.228 263.048 106.515C266.429 107.105 269.24 108.002 275.26 111.478Z" fill="#B382F2" stroke="#151515" stroke-width="2" stroke-linejoin="round"/>
<path d="M284.031 115.777L294.688 115.771C294.857 115.771 295.02 115.732 295.14 115.663C295.259 115.594 295.322 115.505 295.328 115.416V133.138C295.334 133.238 295.272 133.338 295.14 133.414C295.02 133.484 294.857 133.523 294.688 133.523L284.031 133.529C283.615 133.529 283.207 133.482 282.83 133.394V115.642C283.207 115.731 283.615 115.777 284.031 115.777Z" fill="#151515"/>
<path d="M240.602 111.498C246.634 108.015 249.449 107.114 252.831 106.521C254.568 106.216 256.326 106.067 258.082 106.074V123.826C256.326 123.819 254.568 123.968 252.831 124.272C249.449 124.866 246.634 125.767 240.602 129.249L231.975 134.23C231.725 134.374 231.321 134.374 231.073 134.231C230.953 134.162 230.887 134.069 230.887 133.971L230.897 116.285C230.92 116.358 230.981 116.426 231.073 116.479C231.321 116.623 231.725 116.622 231.975 116.478L240.602 111.498Z" fill="#151515"/>
<path d="M295.142 132.893C295.26 132.961 295.322 133.049 295.328 133.138M295.328 133.138C295.334 133.238 295.272 133.338 295.14 133.414C295.02 133.484 294.857 133.523 294.688 133.523L284.031 133.529C283.615 133.529 283.207 133.482 282.83 133.394V115.642C283.207 115.731 283.615 115.777 284.031 115.777L294.688 115.771C294.857 115.771 295.02 115.732 295.14 115.663C295.259 115.594 295.322 115.505 295.328 115.416V133.138ZM252.831 106.521C249.449 107.114 246.634 108.015 240.602 111.498L231.975 116.478C231.725 116.622 231.321 116.623 231.073 116.479C230.981 116.426 230.92 116.358 230.897 116.285L230.887 133.971C230.887 134.069 230.953 134.162 231.073 134.231C231.321 134.374 231.725 134.374 231.975 134.23L240.602 129.249C246.634 125.767 249.449 124.866 252.831 124.272C254.568 123.968 256.326 123.819 258.082 123.826V106.074C256.326 106.067 254.568 106.216 252.831 106.521Z" stroke="#151515" stroke-width="2" stroke-linejoin="round"/>
<path fill-rule="evenodd" clip-rule="evenodd" d="M294.688 115.771L284.031 115.777C283.186 115.777 282.376 115.584 281.78 115.24L275.264 111.478C269.244 108.003 266.432 107.105 263.052 106.515C259.672 105.925 256.213 105.927 252.831 106.521C249.449 107.114 246.634 108.015 240.602 111.497L231.975 116.478C231.725 116.622 231.321 116.623 231.073 116.479C230.953 116.41 230.887 116.317 230.887 116.219L230.897 110.066C230.898 109.577 231.236 109.108 231.836 108.761L234.833 107.031C242.876 102.388 246.628 101.187 251.138 100.395C255.648 99.6038 260.258 99.6013 264.765 100.388C269.273 101.174 273.021 102.371 281.049 107.005L295.142 115.142C295.391 115.285 295.39 115.518 295.14 115.663C295.02 115.732 294.857 115.771 294.688 115.771Z" fill="#8E44EC" stroke="#151515" stroke-width="2" stroke-linejoin="round"/>
<path fill-rule="evenodd" clip-rule="evenodd" d="M291.664 174.262L291.674 168.109C291.675 167.62 292.013 167.151 292.613 166.804L299.137 163.038C305.17 159.555 306.73 157.931 307.758 155.978C308.786 154.026 308.79 152.029 307.768 150.078C306.746 148.126 305.191 146.503 299.171 143.028L290.561 138.057C290.312 137.913 290.313 137.68 290.563 137.536C290.683 137.467 290.845 137.428 291.015 137.428L301.672 137.422C302.517 137.421 303.326 137.615 303.922 137.959L306.918 139.688C314.946 144.322 317.019 146.486 318.382 149.088C319.744 151.69 319.739 154.352 318.369 156.956C316.998 159.559 314.917 161.726 306.874 166.369L292.753 174.521C292.503 174.665 292.099 174.666 291.85 174.522C291.731 174.453 291.664 174.36 291.664 174.262Z" fill="#151515" stroke="#151515" stroke-width="2" stroke-linejoin="round"/>
<path d="M299.171 125.276C305.191 128.751 306.746 130.374 307.768 132.326C308.207 133.164 308.457 134.011 308.517 134.859V152.611C308.537 152.882 308.537 153.153 308.517 153.424V152.611C308.457 151.763 308.207 150.916 307.768 150.077C306.746 148.126 305.191 146.503 299.171 143.027L290.561 138.057C290.423 137.977 290.362 137.87 290.377 137.766V120.077C290.374 120.056 290.374 120.035 290.377 120.014V120.077C290.39 120.16 290.451 120.241 290.561 120.305L299.171 125.276Z" fill="#B382F2"/>
<path d="M307.768 132.326C306.746 130.374 305.191 128.751 299.171 125.276L290.561 120.305C290.423 120.225 290.362 120.118 290.377 120.014V137.766C290.362 137.87 290.423 137.977 290.561 138.057L299.171 143.027C305.191 146.503 306.746 148.126 307.768 150.077C308.347 151.184 308.597 152.305 308.517 153.424V134.859C308.457 134.011 308.207 133.164 307.768 132.326Z" stroke="#151515" stroke-width="2" stroke-linejoin="round"/>
<path d="M306.878 148.617C314.921 143.974 317.001 141.807 318.372 139.204C318.991 138.029 319.331 136.842 319.393 135.654V134.859C319.407 135.124 319.407 135.389 319.393 135.654V152.611C319.469 154.064 319.129 155.519 318.372 156.956C317.001 159.559 314.921 161.725 306.878 166.368L292.756 174.521C292.506 174.665 292.103 174.665 291.854 174.522C291.735 174.453 291.668 174.36 291.668 174.262V156.511C291.668 156.608 291.735 156.701 291.854 156.77C292.103 156.914 292.506 156.913 292.756 156.769L306.878 148.617Z" fill="#151515"/>
<path d="M291.668 156.51C291.668 156.608 291.735 156.701 291.854 156.77C292.103 156.914 292.506 156.913 292.756 156.769L306.878 148.617C314.921 143.974 317.001 141.807 318.372 139.204C319.129 137.767 319.469 136.312 319.393 134.859V152.611C319.469 154.064 319.129 155.519 318.372 156.956C317.001 159.559 314.921 161.725 306.878 166.368L292.756 174.521C292.506 174.665 292.103 174.665 291.854 174.522C291.735 174.453 291.668 174.36 291.668 174.262V156.51Z" stroke="#151515" stroke-width="2" stroke-linejoin="round"/>
<path fill-rule="evenodd" clip-rule="evenodd" d="M291.664 156.51L291.674 150.357C291.675 149.868 292.013 149.399 292.613 149.052L299.137 145.286C305.17 141.803 306.73 140.179 307.758 138.226C308.786 136.274 308.79 134.277 307.768 132.326C306.746 130.374 305.191 128.751 299.171 125.276L290.561 120.305C290.312 120.162 290.313 119.928 290.563 119.784C290.683 119.715 290.845 119.676 291.015 119.676L301.672 119.67C302.517 119.669 303.326 119.863 303.922 120.207L306.918 121.936C314.946 126.571 317.019 128.734 318.382 131.336C319.744 133.938 319.739 136.6 318.369 139.204C316.998 141.807 314.917 143.974 306.874 148.617L292.753 156.769C292.503 156.913 292.099 156.914 291.85 156.77C291.731 156.701 291.664 156.608 291.664 156.51Z" fill="#8E44EC" stroke="#151515" stroke-width="2" stroke-linejoin="round"/>
<path d="M231.766 172.584L221.109 172.59C220.939 172.59 220.777 172.629 220.656 172.698C220.407 172.842 220.406 173.076 220.655 173.219L234.748 181.356C242.776 185.99 246.524 187.187 251.031 187.973C255.539 188.76 260.149 188.757 264.659 187.966C269.169 187.174 272.921 185.973 280.964 181.33L283.961 179.6C284.561 179.253 284.899 178.784 284.9 178.295L284.91 172.141C284.91 172.044 284.843 171.951 284.724 171.882C284.475 171.738 284.072 171.739 283.822 171.883L275.195 176.863C269.163 180.346 266.348 181.247 262.966 181.84C259.583 182.434 256.125 182.436 252.745 181.846C249.364 181.256 246.553 180.358 240.533 176.883L234.017 173.121C233.42 172.777 232.611 172.584 231.766 172.584Z" fill="#151515" stroke="#151515" stroke-width="2" stroke-linejoin="round"/>
<path d="M234.748 163.604C242.776 168.238 246.524 169.435 251.031 170.221C253.22 170.603 255.433 170.799 257.647 170.809V188.56C255.433 188.551 253.22 188.355 251.031 187.973C246.524 187.187 242.776 185.989 234.748 181.355L220.655 173.219C220.527 173.146 220.465 173.048 220.469 172.952V155.215C220.469 155.21 220.469 155.205 220.469 155.2V155.215C220.472 155.307 220.534 155.398 220.655 155.467L234.748 163.604Z" fill="#B382F2"/>
<path d="M220.656 172.698C220.535 172.768 220.472 172.86 220.469 172.952M220.469 172.952C220.465 173.048 220.527 173.146 220.655 173.219L234.748 181.355C242.776 185.989 246.524 187.187 251.031 187.973C253.22 188.355 255.433 188.551 257.647 188.56V170.809C255.433 170.799 253.22 170.603 251.031 170.221C246.524 169.435 242.776 168.238 234.748 163.604L220.655 155.467C220.527 155.394 220.465 155.297 220.469 155.2V172.952Z" stroke="#151515" stroke-width="2" stroke-linejoin="round"/>
<path d="M283.962 161.848C284.562 161.502 284.9 161.032 284.901 160.543V178.295C284.9 178.784 284.562 179.253 283.962 179.6L280.965 181.33C272.922 185.973 269.17 187.174 264.66 187.966C262.34 188.373 259.994 188.571 257.648 188.561V170.809C259.994 170.819 262.34 170.621 264.66 170.214C269.17 169.423 272.922 168.221 280.965 163.578L283.962 161.848Z" fill="#151515" stroke="#151515" stroke-width="2" stroke-linejoin="round"/>
<path d="M231.766 154.832L221.109 154.837C220.939 154.838 220.777 154.877 220.656 154.946C220.407 155.09 220.406 155.323 220.655 155.467L234.748 163.603C242.776 168.237 246.524 169.434 251.031 170.221C255.539 171.007 260.149 171.004 264.659 170.213C269.169 169.422 272.921 168.221 280.964 163.577L283.961 161.847C284.561 161.501 284.899 161.031 284.9 160.542L284.91 154.389C284.91 154.292 284.843 154.198 284.724 154.129C284.475 153.986 284.072 153.986 283.822 154.13L275.195 159.111C269.163 162.593 266.348 163.494 262.966 164.088C259.583 164.681 256.125 164.683 252.745 164.093C249.364 163.504 246.553 162.606 240.533 159.13L234.017 155.368C233.42 155.024 232.611 154.831 231.766 154.832Z" fill="#8E44EC" stroke="#151515" stroke-width="2" stroke-linejoin="round"/>
<path fill-rule="evenodd" clip-rule="evenodd" d="M272.211 133.556L258 133.749C257.039 133.75 256.127 133.873 255.309 134.093C254.626 134.272 253.986 134.523 253.425 134.847L231.955 147.241C231.706 147.385 231.302 147.386 231.053 147.242C230.934 147.173 230.867 147.08 230.867 146.982L230.882 140.826C230.883 140.337 231.221 139.868 231.821 139.522L248.927 129.647C253.909 126.77 261.98 126.766 266.952 129.637L272.651 132.926C272.9 133.07 272.899 133.303 272.649 133.447C272.533 133.514 272.376 133.553 272.211 133.556Z" fill="#8E44EC" stroke="#151515" stroke-width="2" stroke-linejoin="round"/>
<path d="M258.003 115.997L272.215 115.804C272.379 115.802 272.536 115.763 272.653 115.695C272.775 115.625 272.838 115.532 272.84 115.439V133.181C272.843 133.277 272.78 133.374 272.653 133.447C272.536 133.514 272.379 133.553 272.215 133.556L258.003 133.749C257.042 133.75 256.13 133.873 255.312 134.093V116.342C256.13 116.121 257.042 115.998 258.003 115.997Z" fill="#B382F2"/>
<path d="M272.654 132.926C272.776 132.997 272.838 133.088 272.84 133.181M272.84 133.181C272.843 133.277 272.78 133.374 272.653 133.447C272.536 133.514 272.379 133.553 272.215 133.556L258.003 133.749C257.042 133.75 256.13 133.873 255.312 134.093V116.342C256.13 116.121 257.042 115.998 258.003 115.997L272.215 115.804C272.379 115.802 272.536 115.763 272.653 115.695C272.775 115.625 272.838 115.532 272.84 115.439V133.181Z" stroke="#151515" stroke-width="2" stroke-linejoin="round"/>
<path d="M253.425 117.094C253.986 116.77 254.626 116.519 255.309 116.341V134.092C254.626 134.271 253.986 134.522 253.425 134.846L231.955 147.24C231.706 147.384 231.302 147.385 231.053 147.241C230.934 147.173 230.867 147.079 230.867 146.981V129.231C230.867 129.328 230.934 129.421 231.053 129.49C231.302 129.633 231.706 129.633 231.955 129.489L253.425 117.094Z" fill="#151515"/>
<path d="M230.867 146.981C230.867 147.079 230.934 147.173 231.053 147.241C231.302 147.385 231.706 147.384 231.955 147.24L253.425 134.846C253.986 134.522 254.626 134.271 255.309 134.092V116.341C254.626 116.519 253.986 116.77 253.425 117.094L231.955 129.489C231.706 129.633 231.302 129.633 231.053 129.49C230.934 129.421 230.867 129.327 230.867 129.23V146.981ZM230.867 146.981L230.882 140.825" stroke="#151515" stroke-width="2" stroke-linejoin="round"/>
<path fill-rule="evenodd" clip-rule="evenodd" d="M272.211 115.804L258 115.997C257.039 115.998 256.127 116.121 255.309 116.342C254.626 116.52 253.986 116.771 253.425 117.095L231.955 129.489C231.706 129.633 231.302 129.634 231.053 129.49C230.934 129.422 230.867 129.328 230.867 129.23L230.882 123.074C230.883 122.586 231.221 122.116 231.821 121.77L248.927 111.895C253.909 109.018 261.98 109.014 266.952 111.885L272.651 115.174C272.9 115.318 272.899 115.551 272.649 115.695C272.533 115.762 272.376 115.801 272.211 115.804Z" fill="#8E44EC" stroke="#151515" stroke-width="2" stroke-linejoin="round"/>
<path fill-rule="evenodd" clip-rule="evenodd" d="M291.651 161.286L291.342 153.079C291.343 152.524 291.131 151.998 290.751 151.526C290.443 151.132 290.009 150.764 289.449 150.44L268.022 138.07C267.773 137.927 267.774 137.693 268.024 137.549C268.144 137.48 268.307 137.441 268.476 137.441L279.139 137.438C279.984 137.437 280.792 137.63 281.388 137.974L298.466 147.833C303.439 150.704 303.432 155.363 298.449 158.24L292.739 161.536C292.489 161.68 292.085 161.681 291.836 161.537C291.721 161.47 291.654 161.38 291.651 161.286Z" fill="#8E44EC" stroke="#151515" stroke-width="2" stroke-linejoin="round"/>
<path fill-rule="evenodd" clip-rule="evenodd" d="M291.651 143.534L291.342 135.327C291.343 134.772 291.131 134.246 290.751 133.774C290.443 133.38 290.009 133.012 289.449 132.688L268.022 120.318C267.773 120.175 267.774 119.941 268.024 119.797C268.144 119.728 268.307 119.689 268.476 119.689L279.139 119.686C279.984 119.685 280.792 119.878 281.388 120.222L298.466 130.081C303.439 132.952 303.432 137.611 298.449 140.488L292.739 143.784C292.489 143.928 292.085 143.929 291.836 143.785C291.721 143.718 291.654 143.628 291.651 143.534Z" fill="#8E44EC" stroke="#151515" stroke-width="2" stroke-linejoin="round"/>
<path d="M290.751 133.775C291.131 134.246 291.343 134.772 291.342 135.327V153.071C291.341 152.519 291.129 151.996 290.751 151.526C290.443 151.132 290.009 150.763 289.449 150.44L268.022 138.07C267.896 137.997 267.834 137.901 267.836 137.806V120.063C267.838 120.156 267.9 120.248 268.022 120.318L289.449 132.688C290.009 133.012 290.443 133.381 290.751 133.775Z" fill="#B382F2"/>
<path d="M291.342 135.327C291.343 134.772 291.131 134.246 290.751 133.775C290.443 133.381 290.009 133.012 289.449 132.688L268.022 120.318C267.9 120.248 267.838 120.156 267.836 120.063V137.806C267.834 137.901 267.896 137.997 268.022 138.07L289.449 150.44C290.009 150.763 290.443 151.132 290.751 151.526C291.131 151.998 291.343 152.524 291.342 153.079V135.327Z" stroke="#151515" stroke-width="2" stroke-linejoin="round"/>
<path d="M291.348 135.328L291.656 143.535C291.659 143.629 291.726 143.719 291.842 143.786C292.09 143.93 292.494 143.929 292.744 143.785L298.454 140.489C300.926 139.062 302.173 137.196 302.196 135.328V153.08C302.173 154.948 300.926 156.813 298.454 158.24L292.744 161.537C292.494 161.681 292.09 161.681 291.842 161.538C291.726 161.471 291.659 161.381 291.656 161.286L291.348 153.08V135.328Z" fill="#151515" stroke="#151515" stroke-width="2" stroke-linejoin="round"/>
<path fill-rule="evenodd" clip-rule="evenodd" d="M294.696 115.772L284.038 115.778C283.193 115.778 282.384 115.585 281.788 115.241L275.272 111.479C269.251 108.004 266.44 107.106 263.059 106.516C259.679 105.926 256.221 105.928 252.839 106.522C249.456 107.115 246.642 108.016 240.61 111.498L231.983 116.479C231.733 116.623 231.329 116.624 231.08 116.48C230.961 116.411 230.894 116.318 230.894 116.22L230.904 110.067C230.905 109.578 231.243 109.109 231.843 108.762L234.84 107.032C242.883 102.389 246.635 101.188 251.145 100.396C255.655 99.6048 260.266 99.6023 264.773 100.389C269.28 101.175 273.029 102.372 281.056 107.006L295.15 115.142C295.398 115.286 295.398 115.519 295.148 115.663C295.028 115.733 294.865 115.772 294.696 115.772Z" fill="#8E44EC"/>
<path fill-rule="evenodd" clip-rule="evenodd" d="M291.665 156.511L291.675 150.358C291.676 149.869 292.013 149.4 292.614 149.053L299.138 145.287C305.17 141.804 306.731 140.18 307.758 138.227C308.787 136.275 308.79 134.278 307.768 132.327C306.747 130.375 305.192 128.752 299.171 125.277L290.561 120.306C290.313 120.163 290.314 119.929 290.563 119.785C290.683 119.716 290.846 119.677 291.015 119.677L301.673 119.671C302.517 119.67 303.327 119.864 303.923 120.208L306.919 121.937C314.946 126.572 317.02 128.735 318.382 131.337C319.744 133.939 319.74 136.601 318.369 139.205C316.998 141.808 314.918 143.975 306.875 148.618L292.753 156.77C292.503 156.914 292.099 156.915 291.851 156.771C291.732 156.702 291.665 156.609 291.665 156.511Z" fill="#8E44EC"/>
<path fill-rule="evenodd" clip-rule="evenodd" d="M221.107 154.836L231.764 154.831C232.609 154.83 233.419 155.023 234.015 155.367L240.531 159.129C246.552 162.605 249.363 163.502 252.743 164.092C256.123 164.682 259.581 164.68 262.964 164.087C266.346 163.493 269.161 162.592 275.193 159.11L283.82 154.129C284.07 153.985 284.474 153.985 284.722 154.128C284.842 154.197 284.909 154.291 284.908 154.388L284.898 160.541C284.897 161.03 284.559 161.5 283.959 161.846L280.962 163.576C272.919 168.219 269.167 169.421 264.657 170.212C260.147 171.003 255.537 171.006 251.029 170.22C246.522 169.433 242.774 168.236 234.746 163.602L220.653 155.466C220.404 155.322 220.405 155.089 220.655 154.945C220.775 154.876 220.937 154.837 221.107 154.836Z" fill="#8E44EC"/>
<path fill-rule="evenodd" clip-rule="evenodd" d="M224.138 114.097L224.128 120.25C224.127 120.739 223.789 121.209 223.189 121.555L216.665 125.322C210.633 128.804 209.072 130.429 208.044 132.381C207.016 134.334 207.013 136.33 208.034 138.282C209.056 140.233 210.611 141.856 216.632 145.332L225.241 150.302C225.49 150.446 225.489 150.679 225.24 150.823C225.12 150.893 224.957 150.932 224.788 150.932L214.13 150.938C213.285 150.938 212.476 150.745 211.88 150.401L208.884 148.671C200.856 144.037 198.783 141.873 197.421 139.271C196.059 136.669 196.063 134.007 197.434 131.404C198.805 128.8 200.885 126.634 208.928 121.991L223.05 113.839C223.3 113.694 223.704 113.694 223.952 113.837C224.071 113.906 224.138 114 224.138 114.097Z" fill="#8E44EC"/>
<path fill-rule="evenodd" clip-rule="evenodd" d="M272.211 115.804L258 115.997C257.038 115.998 256.127 116.121 255.309 116.342C254.626 116.52 253.986 116.771 253.424 117.095L231.955 129.489C231.705 129.633 231.301 129.634 231.053 129.49C230.933 129.422 230.867 129.328 230.867 129.23L230.881 123.074C230.883 122.586 231.22 122.116 231.821 121.77L248.926 111.895C253.909 109.018 261.979 109.014 266.952 111.885L272.651 115.174C272.899 115.318 272.899 115.551 272.649 115.695C272.532 115.762 272.376 115.801 272.211 115.804Z" fill="#8E44EC"/>
<path fill-rule="evenodd" clip-rule="evenodd" d="M291.657 143.534L291.349 135.327C291.35 134.772 291.138 134.246 290.757 133.774C290.45 133.38 290.016 133.012 289.455 132.688L268.028 120.318C267.78 120.175 267.781 119.941 268.03 119.797C268.15 119.728 268.313 119.689 268.483 119.689L279.146 119.686C279.99 119.685 280.799 119.878 281.395 120.222L298.473 130.081C303.446 132.952 303.438 137.611 298.455 140.488L292.745 143.784C292.495 143.928 292.091 143.929 291.843 143.785C291.727 143.719 291.66 143.628 291.657 143.534Z" fill="#8E44EC"/>
<path fill-rule="evenodd" clip-rule="evenodd" d="M243.592 154.804L257.803 154.611C258.765 154.61 259.676 154.487 260.494 154.266C261.177 154.088 261.817 153.837 262.379 153.513L283.848 141.118C284.098 140.974 284.502 140.974 284.75 141.117C284.87 141.186 284.936 141.28 284.936 141.377L284.921 147.533C284.92 148.022 284.582 148.492 283.982 148.838L266.876 158.713C261.894 161.59 253.824 161.594 248.851 158.723L243.152 155.433C242.904 155.29 242.904 155.057 243.154 154.913C243.271 154.845 243.427 154.806 243.592 154.804Z" fill="#8E44EC"/>
<path fill-rule="evenodd" clip-rule="evenodd" d="M224.15 127.076L224.458 135.283C224.457 135.838 224.669 136.364 225.05 136.836C225.357 137.23 225.791 137.599 226.352 137.922L247.779 150.292C248.027 150.436 248.026 150.669 247.777 150.813C247.657 150.882 247.494 150.921 247.324 150.921L236.661 150.925C235.817 150.925 235.008 150.732 234.412 150.388L217.334 140.529C212.362 137.658 212.369 132.999 217.352 130.123L223.062 126.826C223.312 126.682 223.716 126.681 223.964 126.825C224.08 126.892 224.147 126.982 224.15 127.076Z" fill="#8E44EC"/>
<path fill-rule="evenodd" clip-rule="evenodd" d="M294.696 115.772L284.038 115.778C283.193 115.778 282.384 115.585 281.788 115.241L275.272 111.479C269.251 108.004 266.44 107.106 263.059 106.516C259.679 105.926 256.221 105.928 252.839 106.522C249.456 107.115 246.642 108.016 240.61 111.498L231.983 116.479C231.733 116.623 231.329 116.624 231.08 116.48C230.961 116.411 230.894 116.318 230.894 116.22L230.904 110.067C230.905 109.578 231.243 109.109 231.843 108.762L234.84 107.032C242.883 102.389 246.635 101.188 251.145 100.396C255.655 99.6048 260.266 99.6023 264.773 100.389C269.28 101.175 273.029 102.372 281.056 107.006L295.15 115.142C295.398 115.286 295.398 115.519 295.148 115.663C295.028 115.733 294.865 115.772 294.696 115.772Z" stroke="#151515" stroke-width="2" stroke-linejoin="round"/>
<path fill-rule="evenodd" clip-rule="evenodd" d="M291.665 156.511L291.675 150.358C291.676 149.869 292.013 149.4 292.614 149.053L299.138 145.287C305.17 141.804 306.731 140.18 307.758 138.227C308.787 136.275 308.79 134.278 307.768 132.327C306.747 130.375 305.192 128.752 299.171 125.277L290.561 120.306C290.313 120.163 290.314 119.929 290.563 119.785C290.683 119.716 290.846 119.677 291.015 119.677L301.673 119.671C302.517 119.67 303.327 119.864 303.923 120.208L306.919 121.937C314.946 126.572 317.02 128.735 318.382 131.337C319.744 133.939 319.74 136.601 318.369 139.205C316.998 141.808 314.918 143.975 306.875 148.618L292.753 156.77C292.503 156.914 292.099 156.915 291.851 156.771C291.732 156.702 291.665 156.609 291.665 156.511Z" stroke="#151515" stroke-width="2" stroke-linejoin="round"/>
<path fill-rule="evenodd" clip-rule="evenodd" d="M221.107 154.836L231.764 154.831C232.609 154.83 233.419 155.023 234.015 155.367L240.531 159.129C246.552 162.605 249.363 163.502 252.743 164.092C256.123 164.682 259.581 164.68 262.964 164.087C266.346 163.493 269.161 162.592 275.193 159.11L283.82 154.129C284.07 153.985 284.474 153.985 284.722 154.128C284.842 154.197 284.909 154.291 284.908 154.388L284.898 160.541C284.897 161.03 284.559 161.5 283.959 161.846L280.962 163.576C272.919 168.219 269.167 169.421 264.657 170.212C260.147 171.003 255.537 171.006 251.029 170.22C246.522 169.433 242.774 168.236 234.746 163.602L220.653 155.466C220.404 155.322 220.405 155.089 220.655 154.945C220.775 154.876 220.937 154.837 221.107 154.836Z" stroke="#151515" stroke-width="2" stroke-linejoin="round"/>
<path fill-rule="evenodd" clip-rule="evenodd" d="M224.138 114.097L224.128 120.25C224.127 120.739 223.789 121.209 223.189 121.555L216.665 125.322C210.633 128.804 209.072 130.429 208.044 132.381C207.016 134.334 207.013 136.33 208.034 138.282C209.056 140.233 210.611 141.856 216.632 145.332L225.241 150.302C225.49 150.446 225.489 150.679 225.24 150.823C225.12 150.893 224.957 150.932 224.788 150.932L214.13 150.938C213.285 150.938 212.476 150.745 211.88 150.401L208.884 148.671C200.856 144.037 198.783 141.873 197.421 139.271C196.059 136.669 196.063 134.007 197.434 131.404C198.805 128.8 200.885 126.634 208.928 121.991L223.05 113.839C223.3 113.694 223.704 113.694 223.952 113.837C224.071 113.906 224.138 114 224.138 114.097Z" stroke="#151515" stroke-width="2" stroke-linejoin="round"/>
<path fill-rule="evenodd" clip-rule="evenodd" d="M272.211 115.804L258 115.997C257.038 115.998 256.127 116.121 255.309 116.342C254.626 116.52 253.986 116.771 253.424 117.095L231.955 129.489C231.705 129.633 231.301 129.634 231.053 129.49C230.933 129.422 230.867 129.328 230.867 129.23L230.881 123.074C230.883 122.586 231.22 122.116 231.821 121.77L248.926 111.895C253.909 109.018 261.979 109.014 266.952 111.885L272.651 115.174C272.899 115.318 272.899 115.551 272.649 115.695C272.532 115.762 272.376 115.801 272.211 115.804Z" stroke="#151515" stroke-width="2" stroke-linejoin="round"/>
<path fill-rule="evenodd" clip-rule="evenodd" d="M291.657 143.534L291.349 135.327C291.35 134.772 291.138 134.246 290.757 133.774C290.45 133.38 290.016 133.012 289.455 132.688L268.028 120.318C267.78 120.175 267.781 119.941 268.03 119.797C268.15 119.728 268.313 119.689 268.483 119.689L279.146 119.686C279.99 119.685 280.799 119.878 281.395 120.222L298.473 130.081C303.446 132.952 303.438 137.611 298.455 140.488L292.745 143.784C292.495 143.928 292.091 143.929 291.843 143.785C291.727 143.719 291.66 143.628 291.657 143.534Z" stroke="#151515" stroke-width="2" stroke-linejoin="round"/>
<path fill-rule="evenodd" clip-rule="evenodd" d="M243.592 154.804L257.803 154.611C258.765 154.61 259.676 154.487 260.494 154.266C261.177 154.088 261.817 153.837 262.379 153.513L283.848 141.118C284.098 140.974 284.502 140.974 284.75 141.117C284.87 141.186 284.936 141.28 284.936 141.377L284.921 147.533C284.92 148.022 284.582 148.492 283.982 148.838L266.876 158.713C261.894 161.59 253.824 161.594 248.851 158.723L243.152 155.433C242.904 155.29 242.904 155.057 243.154 154.913C243.271 154.845 243.427 154.806 243.592 154.804Z" stroke="#151515" stroke-width="2" stroke-linejoin="round"/>
<path fill-rule="evenodd" clip-rule="evenodd" d="M224.15 127.076L224.458 135.283C224.457 135.838 224.669 136.364 225.05 136.836C225.357 137.23 225.791 137.599 226.352 137.922L247.779 150.292C248.027 150.436 248.026 150.669 247.777 150.813C247.657 150.882 247.494 150.921 247.324 150.921L236.661 150.925C235.817 150.925 235.008 150.732 234.412 150.388L217.334 140.529C212.362 137.658 212.369 132.999 217.352 130.123L223.062 126.826C223.312 126.682 223.716 126.681 223.964 126.825C224.08 126.892 224.147 126.982 224.15 127.076Z" stroke="#151515" stroke-width="2" stroke-linejoin="round"/>
</g>
<defs>
<clipPath id="clip0_8432_1954">
<rect width="516" height="290" fill="white"/>
</clipPath>
</defs>
</svg>
