<svg viewBox="0 0 64 64" fill="none" xmlns="http://www.w3.org/2000/svg">
    <path opacity="0.2" d="M0 16C0 7.16344 7.16344 0 16 0H48C56.8366 0 64 7.16344 64 16V48C64 56.8366 56.8366 64 48 64H16C7.16344 64 0 56.8366 0 48V16Z" fill="currentColor"/>
    <path d="M47.3304 21.6696C48.2232 22.5623 48.2232 24.0122 47.3304 24.9049L29.0467 43.1885C28.1539 44.0813 26.7043 44.0813 25.8114 43.1885L16.6696 34.0467C15.7768 33.1541 15.7768 31.7043 16.6696 30.8115C17.5623 29.9187 19.0122 29.9187 19.9049 30.8115L27.4325 38.332L44.1021 21.6696C44.9949 20.7768 46.4448 20.7768 47.3376 21.6696H47.3304Z" fill="currentColor"/>
</svg>
    