<svg viewBox="0 0 24 24" fill="none" xmlns="http://www.w3.org/2000/svg">
    <mask id="path-1-inside-1_9_12" fill="white">
    <path fill-rule="evenodd" clip-rule="evenodd" d="M5 4C3.89543 4 3 4.89543 3 6V16.9995V17V18.2333C3 19.0106 3.84797 19.4907 4.5145 19.0908L7.99919 17H19C20.1046 17 21 16.1046 21 15V6C21 4.89543 20.1046 4 19 4H5Z"/>
    </mask>
    <path d="M4.5145 19.0908L3.4855 17.3758L3.4855 17.3758L4.5145 19.0908ZM7.99919 17V15H7.44522L6.9702 15.285L7.99919 17ZM5 6V6V2C2.79086 2 1 3.79086 1 6H5ZM5 16.9995V6H1V16.9995H5ZM5 17V16.9995H1V17H5ZM5 18.2333V17H1V18.2333H5ZM3.4855 17.3758C4.15203 16.9759 5 17.456 5 18.2333H1C1 20.5652 3.54392 22.0055 5.54349 20.8058L3.4855 17.3758ZM6.9702 15.285L3.4855 17.3758L5.54349 20.8058L9.02818 18.715L6.9702 15.285ZM19 15H7.99919V19H19V15ZM19 15V19C21.2091 19 23 17.2091 23 15H19ZM19 6V15H23V6H19ZM19 6H23C23 3.79086 21.2091 2 19 2V6ZM5 6H19V2H5V6Z" fill="currentColor" mask="url(#path-1-inside-1_9_12)"/>
    <path d="M7 10.6174H16" stroke="currentColor" stroke-width="2"/>
</svg>
