<svg viewBox="0 0 24 24" fill="none" xmlns="http://www.w3.org/2000/svg">
    <path opacity="0.2"
        d="M12 24C18.6274 24 24 18.6274 24 12C24 5.37258 18.6274 0 12 0C5.37258 0 0 5.37258 0 12C0 18.6274 5.37258 24 12 24Z"
        fill="currentColor" />
    <path
        d="M14.6144 15.7622C14.9313 16.0791 15.4452 16.0791 15.7622 15.7622C16.0791 15.4452 16.0791 14.9313 15.7622 14.6144L13.1479 12.0001L15.7625 9.38562C16.0794 9.06866 16.0794 8.55477 15.7625 8.23782C15.4455 7.92086 14.9316 7.92086 14.6147 8.23782L12.0001 10.8523L9.38552 8.23772C9.06856 7.92076 8.55467 7.92076 8.23772 8.23772C7.92076 8.55467 7.92076 9.06856 8.23772 9.38552L10.8523 12.0001L8.23802 14.6145C7.92106 14.9314 7.92106 15.4453 8.23802 15.7623C8.55497 16.0792 9.06886 16.0792 9.38582 15.7623L12.0001 13.1479L14.6144 15.7622Z"
        fill="currentColor" />
</svg>
    