<svg xmlns="http://www.w3.org/2000/svg" width="26" height="28" fill="none" style="display: inline-block;">
    <path fill="#151515" d="M18.515 26.285c-3.046 1.74-7.985 1.74-11.031 0-3.046-1.74-3.046-4.563 0-6.303 3.046-1.741 7.985-1.741 11.03 0 3.047 1.74 3.047 4.562 0 6.303Z" opacity=".15"/>
    <circle cx="13" cy="13" r="12" fill="currentColor" stroke="#151515" stroke-linejoin="round"/>
    <path fill="#151515" d="M13 25c6.627 0 12-5.373 12-12 0-.352-.015-.701-.045-1.046-.53 5.084-5.68 9.074-11.955 9.074s-11.425-3.99-11.955-9.074C1.015 12.299 1 12.648 1 13c0 6.627 5.373 12 12 12ZM8.55 1.852A14.166 14.166 0 0 1 13 1.146c1.572 0 3.073.25 4.45.706A11.967 11.967 0 0 0 13 1c-1.572 0-3.073.302-4.45.852Z"/>
    <path stroke="#151515" d="M13 25c6.627 0 12-5.373 12-12 0-.352-.015-.701-.045-1.046-.53 5.084-5.68 9.074-11.955 9.074s-11.425-3.99-11.955-9.074C1.015 12.299 1 12.648 1 13c0 6.627 5.373 12 12 12ZM8.55 1.852A14.166 14.166 0 0 1 13 1.146c1.572 0 3.073.25 4.45.706A11.967 11.967 0 0 0 13 1c-1.572 0-3.073.302-4.45.852Z"/>
  </svg>
  