<svg  viewBox="0 0 64 64" fill="none" xmlns="http://www.w3.org/2000/svg">
<path opacity="0.2" d="M0 16C0 7.16344 7.16344 0 16 0H48C56.8366 0 64 7.16344 64 16V48C64 56.8366 56.8366 64 48 64H16C7.16344 64 0 56.8366 0 48V16Z" fill="currentColor"/>
<path d="M19 20C17.3438 20 16 21.3438 16 23C16 23.9438 16.4438 24.8312 17.2 25.4L30.8 35.6C31.5125 36.1313 32.4875 36.1313 33.2 35.6L46.8 25.4C47.5562 24.8312 48 23.9438 48 23C48 21.3438 46.6562 20 45 20H19ZM16 27V40C16 42.2062 17.7938 44 20 44H44C46.2062 44 48 42.2062 48 40V27L34.4 37.2C32.975 38.2688 31.025 38.2688 29.6 37.2L16 27Z" fill="currentColor"/>
</svg>
