<svg viewBox="0 0 24 24" fill="none" xmlns="http://www.w3.org/2000/svg">
    <path d="M2.95751 12.2513C2.95704 12.2515 2.9592 12.2452 2.96536 12.2314C2.96105 12.2441 2.95797 12.251 2.95751 12.2513ZM3.09639 12C3.2161 11.8098 3.39728 11.554 3.63771 11.2502C4.14714 10.6064 4.88514 9.79428 5.77511 9.00034C7.59779 7.37433 9.86047 6 12 6C14.1504 6 16.4169 7.33168 18.2311 8.92351C19.119 9.70258 19.853 10.5045 20.3578 11.1519C20.6112 11.4769 20.7959 11.7491 20.9116 11.949C20.9221 11.9671 20.9317 11.9841 20.9406 12C20.9317 12.0159 20.9221 12.0329 20.9116 12.051C20.7959 12.2509 20.6112 12.5231 20.3578 12.8481C19.853 13.4955 19.119 14.2974 18.2311 15.0765C16.4169 16.6683 14.1504 18 12 18C9.86047 18 7.59779 16.6257 5.77511 14.9997C4.88514 14.2057 4.14714 13.3936 3.63771 12.7498C3.39728 12.446 3.2161 12.1902 3.09639 12ZM21.0235 12.1727C21.0232 12.1726 21.0218 12.1687 21.0197 12.1614C21.0226 12.1692 21.0237 12.1729 21.0235 12.1727ZM21.0197 11.8386C21.0218 11.8312 21.0233 11.8273 21.0235 11.8273C21.0236 11.8272 21.0226 11.8309 21.0197 11.8386ZM2.96536 11.7686C2.9592 11.7548 2.95704 11.7485 2.95751 11.7487C2.95797 11.749 2.96105 11.7559 2.96536 11.7686Z" stroke="currentColor" stroke-width="2"/>
    <path d="M15 12C15 13.6569 13.6569 15 12 15C10.3431 15 9 13.6569 9 12C9 10.3431 10.3431 9 12 9C13.6569 9 15 10.3431 15 12Z" stroke="currentColor" stroke-width="2"/>
</svg>
    