<svg viewBox="0 0 64 64" fill="none" xmlns="http://www.w3.org/2000/svg">
<path d="M18.7445 56H8.79287V23.9529H18.7445V56ZM13.7633 19.5813C10.5811 19.5813 8 16.9456 8 13.7633C8 12.2348 8.60721 10.7689 9.68804 9.68804C10.7689 8.60721 12.2348 8 13.7633 8C15.2919 8 16.7578 8.60721 17.8386 9.68804C18.9195 10.7689 19.5267 12.2348 19.5267 13.7633C19.5267 16.9456 16.9445 19.5813 13.7633 19.5813ZM55.9904 56H46.0601V40.3997C46.0601 36.6817 45.9851 31.9137 40.8861 31.9137C35.712 31.9137 34.9192 35.9531 34.9192 40.1318V56H24.9782V23.9529H34.5227V28.3244H34.662C35.9906 25.8065 39.2361 23.1493 44.0779 23.1493C54.1496 23.1493 56.0011 29.7816 56.0011 38.396V56H55.9904Z" fill="currentColor"/>
</svg>
