<svg viewBox="0 0 32 32" fill="none" xmlns="http://www.w3.org/2000/svg">
<path fill-rule="evenodd" clip-rule="evenodd" d="M31.6574 16.6256L29.2925 14.2653C29.1995 14.1727 29.1257 14.0627 29.0754 13.9416C29.025 13.8205 28.9991 13.6906 28.9991 13.5594V10.6709C28.9991 8.00115 28.7219 7.03294 28.1982 6.05786C27.6862 5.09267 26.8958 4.3038 25.9295 3.79376C24.9522 3.27242 23.9817 2.99398 21.3085 2.99398H17.4827C17.4435 2.99344 17.4053 2.98142 17.3729 2.95943C17.3405 2.93743 17.3152 2.90641 17.3002 2.87021C17.2852 2.83401 17.2812 2.79421 17.2885 2.75573C17.2959 2.71725 17.3144 2.68177 17.3417 2.65368L19.7055 0.293326C19.8941 0.105278 20.1496 -0.000223024 20.4159 3.53998e-07H21.7451C25.3108 3.53998e-07 26.6033 0.370095 27.9072 1.0656C29.1956 1.74574 30.2495 2.79772 30.9321 4.08479C31.6288 5.38528 32 6.6766 32 10.2355V16.4847C32.0001 16.5246 31.9883 16.5636 31.9662 16.5967C31.944 16.6299 31.9125 16.6557 31.8756 16.6708C31.8387 16.6859 31.7981 16.6897 31.759 16.6817C31.7199 16.6736 31.6853 16.6541 31.6574 16.6256ZM15.3412 31.5978L17.7061 29.2375C17.7994 29.1443 17.9102 29.0704 18.0321 29.0201C18.154 28.9698 18.2846 28.944 18.4165 28.9441H21.3085C23.9828 28.9441 24.9522 28.6657 25.9307 28.1444C26.8964 27.6341 27.6865 26.8452 28.1982 25.8803C28.7207 24.9052 29.0003 23.937 29.0003 21.2673V17.4494C29.0001 17.4098 29.0117 17.371 29.0337 17.3379C29.0556 17.3049 29.0869 17.2792 29.1236 17.2641C29.1602 17.2489 29.2006 17.2451 29.2394 17.253C29.2783 17.2609 29.3139 17.2802 29.3417 17.3085L31.7067 19.6689C31.7994 19.7615 31.8729 19.8716 31.9231 19.9927C31.9732 20.1138 31.999 20.2436 31.9989 20.3747V21.7027C31.9989 25.2615 31.6288 26.5528 30.931 27.8533C30.2481 29.1399 29.1942 30.1915 27.906 30.8714C26.6033 31.568 25.3097 31.9381 21.7439 31.9381H15.4832C15.4437 31.9383 15.405 31.9268 15.3721 31.905C15.3391 31.8832 15.3134 31.852 15.2982 31.8156C15.283 31.7791 15.2789 31.7389 15.2866 31.7002C15.2942 31.6614 15.3132 31.6258 15.3412 31.5978ZM2.70753 17.6729L0.342595 15.3125C0.314619 15.2844 0.278944 15.2653 0.240077 15.2574C0.20121 15.2496 0.160896 15.2535 0.124231 15.2686C0.0875658 15.2837 0.0561948 15.3093 0.0340828 15.3422C0.0119707 15.3751 0.00011014 15.4138 0 15.4535L0 21.7027C0 25.2615 0.37124 26.5517 1.06903 27.8533C1.7515 29.1398 2.80503 30.1914 4.09281 30.8714C5.39673 31.568 6.6892 31.9381 10.2549 31.9381H11.5841C11.8504 31.9383 12.1059 31.8328 12.2945 31.6448L14.6583 29.2844C14.6862 29.2565 14.7052 29.2209 14.7128 29.1821C14.7205 29.1433 14.7165 29.1032 14.7012 29.0667C14.686 29.0302 14.6603 28.9991 14.6273 28.9773C14.5944 28.9555 14.5557 28.9439 14.5162 28.9441H10.6915C8.01719 28.9441 7.04784 28.6657 6.06932 28.1444C5.1031 27.6343 4.31263 26.8455 3.80063 25.8803C3.27814 24.904 2.99971 23.937 2.99971 21.2673V18.3775C2.99972 18.2466 2.97392 18.117 2.92378 17.9961C2.87365 17.8752 2.80016 17.7654 2.70753 17.6729ZM16.6588 0.340304L14.2939 2.70066C14.2006 2.79382 14.0898 2.86768 13.9679 2.91801C13.846 2.96834 13.7154 2.99416 13.5835 2.99398H10.6926C8.01833 2.99398 7.04898 3.27242 6.07047 3.79376C5.10424 4.3038 4.31377 5.09267 3.80178 6.05786C3.27929 7.03294 3.00086 8.00115 3.00086 10.6709V14.4887C3.00075 14.5283 2.98889 14.5671 2.96678 14.6C2.94466 14.6329 2.91329 14.6585 2.87663 14.6736C2.83996 14.6886 2.79965 14.6925 2.76078 14.6847C2.72192 14.6769 2.68624 14.6577 2.65826 14.6296L0.293326 12.2681C0.20054 12.1757 0.126877 12.0659 0.0765467 11.945C0.0262165 11.8241 0.000205423 11.6944 0 11.5634L0 10.2355C0 6.6766 0.37124 5.38528 1.06903 4.08479C1.75155 2.79835 2.80508 1.74682 4.09281 1.06674C5.39673 0.370095 6.6892 3.53998e-07 10.2549 3.53998e-07H16.5168C16.556 0.000327425 16.5944 0.0121827 16.6269 0.0340944C16.6595 0.0560061 16.685 0.0870092 16.7001 0.123255C16.7153 0.159501 16.7194 0.199393 16.7121 0.237979C16.7047 0.276565 16.6862 0.312146 16.6588 0.340304ZM23.4363 8.57634L26.6606 11.6528C26.6889 11.68 26.7246 11.6982 26.7632 11.7052C26.8018 11.7123 26.8416 11.7078 26.8777 11.6925C26.9138 11.6771 26.9446 11.6515 26.9663 11.6188C26.988 11.586 26.9996 11.5477 26.9997 11.5085V8.98195C26.9985 7.9222 26.5764 6.90631 25.8263 6.1577C25.0762 5.4091 24.0595 4.98906 22.9997 4.98997H15.4145C15.1491 4.99005 14.8946 5.09509 14.7064 5.28215L12.3392 7.64251C12.3108 7.6704 12.2915 7.70612 12.2836 7.74509C12.2757 7.78405 12.2797 7.82449 12.2949 7.86119C12.3102 7.8979 12.3361 7.9292 12.3693 7.95108C12.4025 7.97295 12.4415 7.9844 12.4812 7.98396H21.9994C22.2492 7.98396 22.4875 8.02979 22.7064 8.11229C22.9734 8.20854 23.222 8.36437 23.4363 8.57634ZM20.3231 26.6136L23.4053 23.3939C23.6196 23.1807 23.7743 22.9321 23.8717 22.6663C23.9542 22.4474 24 22.2091 24 21.9605V12.4606C24.0001 12.421 24.012 12.3822 24.0341 12.3493C24.0562 12.3164 24.0876 12.2908 24.1242 12.2757C24.1609 12.2606 24.2012 12.2568 24.2401 12.2646C24.2789 12.2724 24.3146 12.2916 24.3426 12.3197L26.7075 14.6823C26.8945 14.8692 26.9996 15.1227 26.9997 15.387V22.9585C26.9988 24.0182 26.577 25.0342 25.8271 25.783C25.0772 26.5319 24.0606 26.9522 23.0009 26.9516H20.4686C20.4295 26.9515 20.3913 26.94 20.3586 26.9184C20.326 26.8969 20.3004 26.8663 20.2849 26.8304C20.2694 26.7944 20.2648 26.7548 20.2716 26.7163C20.2784 26.6777 20.2963 26.642 20.3231 26.6136ZM8.56374 23.3606L5.33944 20.2853C5.31117 20.2582 5.27558 20.24 5.23708 20.233C5.19858 20.2259 5.15885 20.2302 5.12279 20.2454C5.08673 20.2607 5.05591 20.2861 5.03414 20.3187C5.01237 20.3512 5.0006 20.3894 5.00029 20.4285V22.9562C5.0015 24.0159 5.42358 25.0318 6.17369 25.7804C6.9238 26.529 7.94053 26.9491 9.00029 26.9482H16.5855C16.8511 26.9479 17.1057 26.8424 17.2936 26.6548L19.6608 24.2945C19.6888 24.2665 19.7078 24.2309 19.7154 24.1921C19.7231 24.1534 19.719 24.1132 19.7038 24.0767C19.6886 24.0403 19.6629 24.0091 19.6299 23.9873C19.597 23.9655 19.5583 23.954 19.5188 23.9542H10.0006C9.75079 23.9542 9.51246 23.9083 9.29247 23.8258C9.01845 23.7259 8.7697 23.5671 8.56374 23.3606ZM11.6769 5.32684L8.59467 8.54655C8.38817 8.75206 8.22935 9.00045 8.12948 9.27413C8.04583 9.49413 8 9.73245 8 9.97995V19.481C8.00022 19.5207 7.98852 19.5597 7.96642 19.5928C7.94431 19.6259 7.9128 19.6516 7.87595 19.6666C7.8391 19.6817 7.7986 19.6853 7.75965 19.6772C7.7207 19.669 7.68509 19.6493 7.65741 19.6207L5.29361 17.2604C5.10664 17.0735 5.00154 16.8201 5.00143 16.5557V8.98195C5.00265 7.9222 5.42472 6.90631 6.17483 6.1577C6.92495 5.4091 7.94168 4.98906 9.00143 4.98997H11.5337C11.5724 4.99048 11.6103 5.00223 11.6425 5.0238C11.6748 5.04537 11.7 5.07583 11.7153 5.11149C11.7306 5.14714 11.7352 5.18647 11.7286 5.22469C11.722 5.26292 11.7044 5.2984 11.678 5.32684H11.6769Z" fill="currentColor"/>
</svg>
