<svg viewBox="0 0 24 24" fill="none" xmlns="http://www.w3.org/2000/svg">
    <path
        d="M11.214 0.00656105C11.1625 0.0115611 10.9985 0.0275611 10.8505 0.0395611C7.4415 0.346561 4.2485 2.18506 2.2265 5.01206C1.10852 6.56368 0.381754 8.36232 0.108 10.2551C0.0115 10.9141 0 11.1086 0 12.0026C0 12.8961 0.0115 13.0911 0.108 13.7501C0.76 18.2561 3.967 22.0421 8.3165 23.4451C9.0955 23.6956 9.9165 23.8671 10.8505 23.9701C11.214 24.0101 12.7855 24.0101 13.1495 23.9701C14.7615 23.7921 16.1265 23.3931 17.4735 22.7056C17.6795 22.6006 17.7195 22.5721 17.6915 22.5486C17.6725 22.5346 16.793 21.3546 15.737 19.9286L13.818 17.3366L11.4135 13.7781C10.0905 11.8216 9.0015 10.2221 8.9925 10.2221C8.983 10.2196 8.9735 11.8006 8.969 13.7311C8.962 17.1111 8.9595 17.2476 8.9175 17.3271C8.8565 17.4421 8.8095 17.4891 8.711 17.5406C8.636 17.5781 8.57 17.5856 8.216 17.5856H7.81L7.702 17.5171C7.63527 17.4752 7.58104 17.4161 7.545 17.3461L7.4955 17.2406L7.5005 12.5371L7.5075 7.83206L7.58 7.74006C7.6175 7.69106 7.6975 7.62756 7.7535 7.59706C7.85 7.55006 7.8875 7.54556 8.2935 7.54556C8.772 7.54556 8.8515 7.56456 8.976 7.70056C9.011 7.73806 10.313 9.69906 11.871 12.0611C13.429 14.4231 15.559 17.6486 16.6055 19.2321L18.5055 22.1101L18.6015 22.0466C19.4535 21.4931 20.354 20.7051 21.0675 19.8841C22.5796 18.1537 23.5605 16.0239 23.8925 13.7501C23.9885 13.0906 24 12.8961 24 12.0026C24 11.1086 23.9885 10.9141 23.892 10.2551C23.24 5.74856 20.033 1.96306 15.6835 0.560061C14.916 0.311561 14.0995 0.140061 13.1845 0.0370611C12.9595 0.0135611 11.409 -0.0124389 11.2145 0.00656105H11.214ZM16.1265 7.26406C16.1823 7.29228 16.232 7.33129 16.2727 7.37884C16.3134 7.42638 16.3443 7.48152 16.3635 7.54106C16.3825 7.60206 16.387 8.90606 16.3825 11.8451L16.3755 16.0631L15.6315 14.9231L14.8855 13.7831V10.7171C14.8855 8.73506 14.895 7.62056 14.909 7.56706C14.9257 7.50457 14.955 7.44612 14.9949 7.39524C15.0349 7.34436 15.0847 7.30212 15.1415 7.27106C15.2375 7.22206 15.2725 7.21706 15.6415 7.21706C15.9885 7.21706 16.0495 7.22206 16.1265 7.26406V7.26406Z"
        fill="currentColor" />
</svg>