<svg viewBox="0 0 42 42" fill="none" xmlns="http://www.w3.org/2000/svg">
    <path fill-rule="evenodd" clip-rule="evenodd"
        d="M42 21C42 32.598 32.598 42 21 42C9.40202 42 0 32.598 0 21C0 9.40202 9.40202 0 21 0C32.598 0 42 9.40202 42 21ZM16 16C16 14.8954 16.8954 14 18 14C19.1046 14 20 14.8954 20 16V26C20 27.1046 19.1046 28 18 28C16.8954 28 16 27.1046 16 26V16ZM24 14C22.8954 14 22 14.8954 22 16V26C22 27.1046 22.8954 28 24 28C25.1046 28 26 27.1046 26 26V16C26 14.8954 25.1046 14 24 14Z"
        fill="currentColor" />
</svg>
    