<?xml version="1.0" encoding="utf-8"?>
<svg version="1.1" xmlns="http://www.w3.org/2000/svg" xmlns:xlink="http://www.w3.org/1999/xlink" x="0px" y="0px"
	viewBox="0 0 310 171" style="enable-background:new 0 0 310 171;" xml:space="preserve">
	<path fill="currentColor" d="M21.3,170.3c0-27.2,0-54.3,0-81.5c4.3-0.7,6.5-1,10.8-1.7c4.9,14.3,9.7,28.7,14.5,43.1c0.1,0,0.1,0,0.2,0
	c4.8-15.6,9.6-31.2,14.3-46.9c4.4-0.5,6.6-0.7,10.9-1.2c0.1,29.4,0.1,58.8,0.2,88.1c-4.5,0-6.8,0-11.3,0c0-17.6-0.1-35.2-0.1-52.9
	c-0.1,0-0.1,0-0.2,0c-3.6,12.5-7.3,25.1-11.1,37.6c-2.2,0.1-3.4,0.1-5.6,0.1c-3.6-11.8-7.3-23.7-11.1-35.5c-0.1,0-0.1,0-0.2,0
	c0,16.9,0,33.8,0,50.6C28,170.3,25.8,170.3,21.3,170.3z" />
	<path fill="currentColor" d="M82.7,170.2c-0.1-29.7-0.1-59.4-0.2-89.1c11.2-0.9,22.4-1.7,33.6-2.2c0,4.9,0,7.4,0,12.3
	c-7.5,0.3-14.9,0.7-22.4,1.1c0,8.8,0,17.6,0,26.4c7.8-0.3,11.7-0.5,19.5-0.7c0,4.9,0,7.4,0,12.3c-7.8,0.2-11.7,0.3-19.5,0.5
	c0,8.8,0,17.6,0,26.4c7.4-0.1,14.9-0.1,22.3-0.2c0,5.2,0,7.8,0,13.1C105.1,170.2,93.9,170.2,82.7,170.2z" />
	<path fill="currentColor" d="M123.6,170.2c0-30.5-0.1-61.1-0.1-91.6c11.2-0.3,22.5-0.5,33.7-0.5c0,5,0,7.5,0,12.4c-7.5,0-14.9,0-22.4,0.2
	c0,9,0,18,0,27c7.8-0.1,11.7-0.1,19.5-0.1c0,5,0,7.5,0,12.4c-7.8,0-11.7,0-19.5,0.1c0,9,0,18,0,27c7.4,0,14.9,0,22.3,0
	c0,5.3,0,7.9,0,13.2C146,170.2,134.8,170.2,123.6,170.2z" />
	<path fill="currentColor" d="M171.9,170.2c0-26.5,0-53,0-79.5c-5.2-0.1-7.8-0.1-13.1-0.2c0-5,0-7.5,0-12.4c12.5,0.1,25,0.4,37.5,1.1
	c0,4.9,0,7.4,0,12.3c-5.2-0.2-7.8-0.3-13.1-0.5c0,26.4,0,52.8-0.1,79.2C178.7,170.2,176.4,170.2,171.9,170.2z" />
	<path fill="currentColor" d="M237.8,82.5c0,22.7-0.1,45.4-0.1,68c0,2.9-0.5,5.5-1.4,7.9c-0.9,2.4-2.2,4.6-3.9,6.5c-1.7,1.9-3.7,3.4-5.9,4.5
	c-2.2,1.1-4.6,1.6-7.1,1.6s-4.8-0.5-7-1.6c-2.2-1.1-4.1-2.6-5.8-4.6c-1.7-2-3-4.2-4-6.7c-1-2.5-1.4-5.3-1.4-8.2
	c0-23.4,0.1-46.9,0.1-70.3c4.5,0.3,6.8,0.4,11.3,0.8c0,22.8-0.1,45.7-0.1,68.5c0,3.2,0.7,5.6,2,7.1c1.3,1.5,3,2.3,5,2.3
	c2,0,3.6-0.7,5-2.2c1.3-1.5,2-3.8,2-7c0-22.5,0.1-45.1,0.1-67.6C231.1,81.8,233.3,82,237.8,82.5z" />
	<path fill="currentColor" d="M248.3,170.3c0-28.9,0.1-57.7,0.1-86.6c6.8,0.8,10.1,1.2,16.9,2.2c3.1,0.4,5.8,1.3,8.1,2.5
	c2.3,1.2,4.5,3,6.4,5.5c1.9,2.4,3.2,5.1,4,8.1c0.7,3,1.1,6.9,1.1,11.8c0,3.7-0.2,6.7-0.6,9.2c-0.4,2.5-1.3,4.8-2.6,6.9
	c-1.5,2.5-3.6,4.5-6.2,5.9c-2.6,1.3-6,1.9-10.2,1.7c-2.3-0.1-3.4-0.2-5.7-0.3c0,11.1,0,22.2,0,33.3
	C255,170.3,252.8,170.3,248.3,170.3z M259.7,96.6c0,9.7,0,19.3,0,29c2.2,0.1,3.2,0.2,5.4,0.4c2.3,0.2,4-0.1,5.3-0.7
	c1.2-0.6,2.2-1.5,2.8-2.7c0.6-1.1,0.9-2.5,1.1-4.2c0.1-1.7,0.2-3.6,0.2-5.7c0-1.9,0-3.8-0.1-5.6c-0.1-1.8-0.4-3.3-1-4.7
	c-0.6-1.4-1.5-2.5-2.6-3.4c-1.2-0.9-2.9-1.4-5.1-1.7C263.2,97,262,96.8,259.7,96.6z" />
	<g>
		<g>
			<path fill="currentColor" d="M13.2,52.6c0,11.1,0,16.7,0,27.8C8,81.3,5.5,81.7,0.3,82.8c0-27.1,0-54.2,0-81.4c8.7,0,13.1,0,21.8-0.1
			c6.3,0,11.3,2.3,15.1,6.9c3.7,4.5,5.6,10.4,5.6,17.7c0,7.3-1.9,13.1-5.6,17.7c-3.7,4.6-8.9,7.3-15.4,8
			C18.3,51.9,16.6,52.1,13.2,52.6z M13.2,39.3c3.5-0.3,5.3-0.5,8.8-0.8c2.5-0.2,4.4-1.3,5.7-3.4c1.3-2,2-4.9,2-8.5
			c0-3.8-0.7-6.8-2-9c-1.4-2.2-3.2-3.3-5.5-3.3c-3.6,0.1-5.4,0.2-9,0.3C13.2,24.5,13.2,29.4,13.2,39.3z" />
			<path fill="currentColor" d="M70.6,46.1c-2.6,0.2-3.8,0.3-6.4,0.5c0,10.4,0,15.7-0.1,26.1c-5.2,0.6-7.7,0.9-12.9,1.6
			c0.1-24.3,0.1-48.7,0.2-73c8.2,0,12.3,0,20.6,0c6.5,0,11.4,1.8,15,5.4c3.5,3.6,5.3,8.7,5.3,15.3c0,9.1-3.1,15.6-9.3,19.6
			c3.7,9.2,7.4,18.4,11.1,27.5c0,0.3,0,0.4,0,0.7c-5.6,0.4-8.3,0.7-13.9,1.2C76.4,61.2,74.5,56.2,70.6,46.1z M64.3,34.6
			c2.9-0.2,4.4-0.2,7.3-0.4c2.6-0.1,4.5-1.2,5.8-3.1c1.3-1.9,1.9-4.5,1.9-7.6c0-7-2.5-10.5-7.5-10.4c-3,0.1-4.5,0.1-7.5,0.2
			C64.3,21.8,64.3,26.1,64.3,34.6z" />
			<path fill="currentColor" d="M114.5,68.5c-5.2,0.3-7.8,0.4-12.9,0.8c0-22.7,0.1-45.4,0.1-68.1c5.2,0,7.7,0,12.9,0
			C114.6,23.6,114.5,46.1,114.5,68.5z" />
			<path fill="currentColor" d="M152.4,50.1c0-2.7-0.7-4.7-2-6.1c-1.3-1.4-3.8-2.8-7.3-4.3c-6.4-2.5-11-5.4-13.8-8.7c-2.8-3.4-4.2-7.4-4.2-12
			c0-5.6,1.9-10.2,5.7-13.6c3.8-3.4,8.7-5.1,14.5-5.1c3.9,0,7.4,0.9,10.5,2.6c3.1,1.7,5.4,4.1,7.1,7.3c1.7,3.1,2.5,6.7,2.5,10.7
			c-5.1,0-7.7,0-12.9,0c0-3.1-0.6-5.5-1.9-7.1c-1.3-1.6-3.1-2.4-5.5-2.4c-2.3,0-4,0.7-5.3,2.1c-1.3,1.4-1.9,3.3-1.9,5.6
			c0,1.8,0.7,3.5,2.1,4.9c1.4,1.5,3.9,3,7.5,4.5c6.2,2.3,10.8,5.2,13.6,8.6c2.8,3.4,4.2,7.8,4.2,13c0,5.8-1.8,10.3-5.3,13.5
			c-3.5,3.2-8.4,4.8-14.5,4.9c-4.1,0.1-7.9-0.8-11.3-2.4c-3.4-1.7-6.1-4.1-8-7.4c-1.9-3.2-2.9-7.1-2.9-11.6c5.2-0.1,7.8-0.2,13-0.3
			c0,3.8,0.7,6.6,2.1,8.3s3.8,2.5,7,2.5C150.2,57.5,152.4,55,152.4,50.1z" />
			<path fill="currentColor" d="M190.8,1.2c4.1,16.3,8.1,32.6,12.2,49c4-16.3,8-32.6,11.9-49c6.7,0,10.1,0,16.8,0c0.1,23.3,0.1,46.7,0.2,70
			c-5.2-0.5-7.8-0.7-13-1.2c0-7.5,0-11.2,0-18.6c0.4-9.6,0.7-19.1,1.1-28.7c-4.2,15.5-8.4,31-12.7,46.4c-3.5-0.2-5.3-0.3-8.8-0.5
			c-4.2-15.5-8.5-31.1-12.9-46.6c0.5,11.2,0.7,16.7,1.2,27.9c0,7.2,0,10.9,0,18.1c-5.2-0.2-7.8-0.3-12.9-0.4c0-22.2,0-44.3-0.1-66.5
			C180.7,1.2,184.1,1.2,190.8,1.2z" />
			<path fill="currentColor" d="M255.7,73.9c-5.2-0.7-7.7-1-12.9-1.6c-0.1-23.7-0.1-47.4-0.2-71.1c5.2,0,7.7,0,12.9,0
			C255.6,25.5,255.6,49.7,255.7,73.9z" />
			<path fill="currentColor" d="M309.6,55.6c-0.3,9.2-2.4,15.9-6.1,20c-3.8,4-9,5.3-15.9,4.1c-7.2-1.2-12.7-4.9-16.6-11
			c-3.8-6.1-5.8-14.1-5.8-24.3c0-5,0-7.5,0-12.4c0-10.2,1.9-17.9,5.9-23.4c4-5.5,9.5-8.3,16.6-8.3c7,0,12.2,2.4,15.9,7.3
			c3.6,4.9,5.7,12.1,6.2,21.5c-5.2-0.4-7.7-0.5-12.9-0.9c-0.1-5.6-0.8-9.4-2.1-11.6c-1.3-2.2-3.6-3.3-7-3.4
			c-3.4-0.1-5.9,1.3-7.3,4.1c-1.4,2.8-2.2,7.5-2.3,14.1c0,5.7,0,8.6,0,14.3c0,7.5,0.7,12.8,2.2,15.8c1.4,3,3.8,4.8,7.3,5.3
			c3.4,0.5,5.7-0.2,7-2c1.3-1.8,2-5.4,2.2-10.8C301.9,54.6,304.5,55,309.6,55.6z" />
		</g>
	</g>
</svg>