<svg viewBox="0 0 24 24" fill="none" xmlns="http://www.w3.org/2000/svg">
    <circle opacity="0.25" cx="12" cy="12" r="12" fill="#A4A4A4" />
    <path
        d="M7.95939 7.74844C8.3297 6.70313 9.32345 6 10.4344 6H13.1672C14.8031 6 16.125 7.32656 16.125 8.95781C16.125 10.0172 15.5578 10.9969 14.6391 11.5266L13.125 12.3937C13.1156 13.0031 12.6141 13.5 12 13.5C11.3766 13.5 10.875 12.9984 10.875 12.375V11.7422C10.875 11.3391 11.0906 10.9687 11.4422 10.7672L13.5188 9.57656C13.7391 9.45 13.875 9.21562 13.875 8.9625C13.875 8.56875 13.5563 8.25469 13.1672 8.25469H10.4344C10.275 8.25469 10.1344 8.35312 10.0828 8.50312L10.0641 8.55938C9.85783 9.14531 9.21095 9.45 8.6297 9.24375C8.04845 9.0375 7.73908 8.39063 7.94533 7.80938L7.96408 7.75312L7.95939 7.74844ZM13.5 16.5C13.5 17.3297 12.8297 18 12 18C11.1703 18 10.5 17.3297 10.5 16.5C10.5 15.6703 11.1703 15 12 15C12.8297 15 13.5 15.6703 13.5 16.5Z"
        fill="#A4A4A4" />
</svg>
    