<svg viewBox="0 0 64 64" fill="none" xmlns="http://www.w3.org/2000/svg">
    <path opacity="0.2" d="M0 16C0 7.16344 7.16344 0 16 0H48C56.8366 0 64 7.16344 64 16V48C64 56.8366 56.8366 64 48 64H16C7.16344 64 0 56.8366 0 48V16Z" fill="currentColor"/>
    <path d="M41.9962 28.9981C41.9962 31.8664 41.0651 34.516 39.4966 36.6657L47.4079 44.5833C48.189 45.3644 48.189 46.633 47.4079 47.4141C46.6268 48.1953 45.3582 48.1953 44.5771 47.4141L36.6657 39.4966C34.516 41.0713 31.8664 41.9962 28.9981 41.9962C21.8179 41.9962 16 36.1783 16 28.9981C16 21.8179 21.8179 16 28.9981 16C36.1783 16 41.9962 21.8179 41.9962 28.9981ZM28.9981 37.9968C30.1798 37.9968 31.35 37.764 32.4417 37.3118C33.5335 36.8596 34.5255 36.1967 35.3611 35.3611C36.1967 34.5255 36.8596 33.5335 37.3118 32.4417C37.764 31.35 37.9968 30.1798 37.9968 28.9981C37.9968 27.8164 37.764 26.6462 37.3118 25.5544C36.8596 24.4627 36.1967 23.4707 35.3611 22.6351C34.5255 21.7995 33.5335 21.1366 32.4417 20.6844C31.35 20.2322 30.1798 19.9994 28.9981 19.9994C27.8164 19.9994 26.6462 20.2322 25.5544 20.6844C24.4627 21.1366 23.4707 21.7995 22.6351 22.6351C21.7995 23.4707 21.1366 24.4627 20.6844 25.5544C20.2322 26.6462 19.9994 27.8164 19.9994 28.9981C19.9994 30.1798 20.2322 31.35 20.6844 32.4417C21.1366 33.5335 21.7995 34.5255 22.6351 35.3611C23.4707 36.1967 24.4627 36.8596 25.5544 37.3118C26.6462 37.764 27.8164 37.9968 28.9981 37.9968Z" fill="currentColor"/>
</svg>
