<svg viewBox="0 0 40 40" fill="none" xmlns="http://www.w3.org/2000/svg">
    <path fill-rule="evenodd" clip-rule="evenodd" d="M20 40C31.0457 40 40 31.0457 40 20C40 8.9543 31.0457 0 20 0C8.9543 0 0 8.9543 0 20C0 31.0457 8.9543 40 20 40ZM19.1375 24.4973V15.9045L23.8834 13.143C24.5785 12.7386 25.4505 13.24 25.4505 14.0443V26.3574C25.4505 27.1617 24.5785 27.6631 23.8834 27.2587L19.1375 24.4973ZM14 17.2252C14 16.5054 14.5835 15.9219 15.3034 15.9219H19.1363V24.4824H15.3034C14.5835 24.4824 14 23.8989 14 23.179V17.2252Z" fill="currentColor" />
</svg>
    