<svg viewBox="0 0 40 40" fill="none" xmlns="http://www.w3.org/2000/svg">
    <path fill-rule="evenodd" clip-rule="evenodd" d="M20 40C31.0457 40 40 31.0457 40 20C40 8.9543 31.0457 0 20 0C8.9543 0 0 8.9543 0 20C0 31.0457 8.9543 40 20 40ZM17.1345 15.839V24.4317L21.8804 27.1931C22.5755 27.5976 23.4474 27.0961 23.4474 26.2919V13.9787C23.4474 13.1745 22.5755 12.673 21.8803 13.0775L17.1345 15.839ZM13.3003 15.8563C12.5805 15.8563 11.997 16.4399 11.997 17.1597V23.1135C11.997 23.8333 12.5805 24.4168 13.3003 24.4168H17.1333V15.8563H13.3003ZM27.4996 20.0004C27.4996 18.4341 26.5578 17.0856 25.2057 16.4943L25.9874 14.7066C28.0244 15.5973 29.4508 17.6312 29.4508 20.0004C29.4508 22.3697 28.0244 24.4036 25.9874 25.2943L25.2057 23.5066C26.5578 22.9153 27.4996 21.5667 27.4996 20.0004Z" fill="currentColor" />
</svg>
    