<svg viewBox="0 0 64 64" fill="none" xmlns="http://www.w3.org/2000/svg">
<path d="M51.0661 21.7157C51.0966 22.1421 51.0966 22.5686 51.0966 22.9949C51.0966 36 41.1981 50.9849 23.1067 50.9849C17.533 50.9849 12.3554 49.3706 8 46.5687C8.79191 46.66 9.55326 46.6904 10.3756 46.6904C14.9746 46.6904 19.2081 45.1372 22.5889 42.4874C18.264 42.396 14.6396 39.5635 13.3908 35.665C14 35.7563 14.6091 35.8173 15.2488 35.8173C16.132 35.8173 17.0153 35.6954 17.8376 35.4823C13.33 34.5685 9.94916 30.6092 9.94916 25.8274V25.7056C11.2588 26.4366 12.7817 26.8935 14.3958 26.9543C11.7461 25.1878 10.0101 22.1726 10.0101 18.7614C10.0101 16.934 10.4973 15.2589 11.3502 13.7969C16.1928 19.7665 23.4721 23.6649 31.6345 24.0914C31.4822 23.3604 31.3908 22.599 31.3908 21.8376C31.3908 16.4162 35.7766 12 41.2284 12C44.0609 12 46.6192 13.1878 48.4163 15.1066C50.6395 14.6802 52.7715 13.8579 54.6599 12.731C53.9289 15.0153 52.3756 16.9341 50.335 18.1523C52.3148 17.9392 54.2336 17.3908 56 16.6295C54.6601 18.5787 52.9849 20.3146 51.0661 21.7157Z" fill="currentColor"/>
</svg>
