<svg viewBox="0 0 24 24" fill="none" xmlns="http://www.w3.org/2000/svg">
<circle opacity="0.2" cx="12" cy="12" r="12" fill="currentColor"/>
<path d="M16.2336 9.03701C16.585 8.68562 16.585 8.11495 16.2336 7.76355C15.8822 7.41215 15.3116 7.41215 14.9602 7.76355L12 10.7265L9.03701 7.76636C8.68562 7.41496 8.11495 7.41496 7.76355 7.76636C7.41215 8.11776 7.41215 8.68843 7.76355 9.03982L10.7265 12L7.76636 14.963C7.41496 15.3144 7.41496 15.8851 7.76636 16.2365C8.11776 16.5878 8.68843 16.5878 9.03983 16.2365L12 13.2735L14.963 16.2336C15.3144 16.585 15.8851 16.585 16.2365 16.2336C16.5878 15.8822 16.5878 15.3116 16.2365 14.9602L13.2735 12L16.2336 9.03701Z" fill="currentColor"/>
</svg>
