<svg width="99" height="72" viewBox="0 0 99 72" fill="none" xmlns="http://www.w3.org/2000/svg">
<path fill-rule="evenodd" clip-rule="evenodd" d="M22.8835 36.5096L23.1266 42.9814C23.1259 43.4191 23.293 43.834 23.593 44.2059C23.8354 44.5166 24.1776 44.8076 24.6196 45.0628L41.5175 54.8179C41.7136 54.9311 41.7127 55.115 41.5159 55.2286C41.4211 55.2833 41.2927 55.3141 41.159 55.3141L32.7501 55.3168C32.0842 55.317 31.4464 55.1647 30.9765 54.8934L17.5085 47.1184C13.5868 44.8544 13.5929 41.1802 17.5222 38.9118L22.0255 36.3121C22.2224 36.1984 22.5409 36.198 22.737 36.3112C22.8283 36.3639 22.8807 36.4349 22.8835 36.5096Z" fill="#8E44EC" stroke="#151515" stroke-linejoin="round"/>
<path d="M17.5085 33.1194L30.9765 40.8945C31.214 41.0316 31.4943 41.1383 31.7995 41.2103V55.2095C31.4943 55.1376 31.214 55.0309 30.9765 54.8938L17.5085 47.1187C15.5681 45.9985 14.5893 44.5331 14.5715 43.0636V29.0643C14.5711 29.037 14.5711 29.0098 14.5715 28.9825V29.0643C14.5893 30.5339 15.5681 31.9993 17.5085 33.1194Z" fill="#B382F2" stroke="#151515" stroke-linejoin="round"/>
<path d="M41.1583 41.3147C41.292 41.3146 41.4204 41.2839 41.5151 41.2292C41.6026 41.1787 41.6514 41.1143 41.6614 41.0484V40.9976C41.6639 41.0145 41.6639 41.0315 41.6614 41.0484V54.9969C41.6739 55.0796 41.6251 55.165 41.5151 55.2285C41.4204 55.2832 41.292 55.3139 41.1583 55.3139L32.7494 55.3166C32.42 55.3167 32.0975 55.2795 31.7988 55.2091V41.2098C32.0975 41.2802 32.42 41.3174 32.7494 41.3173L41.1583 41.3147Z" fill="#151515" stroke="#151515" stroke-linejoin="round"/>
<path fill-rule="evenodd" clip-rule="evenodd" d="M22.8835 22.5105L23.1265 28.9823C23.1258 29.42 23.293 29.8349 23.5929 30.2068C23.8354 30.5175 24.1776 30.8085 24.6196 31.0637L41.5174 40.8188C41.7135 40.932 41.7127 41.1159 41.5158 41.2295C41.4211 41.2842 41.2927 41.315 41.159 41.315L32.7501 41.3177C32.0841 41.3179 31.4463 41.1656 30.9764 40.8944L17.5085 33.1193C13.5867 30.8553 13.5929 27.1811 17.5221 24.9127L22.0254 22.313C22.2223 22.1993 22.5409 22.1989 22.737 22.3121C22.8282 22.3648 22.8807 22.4358 22.8835 22.5105Z" fill="#8E44EC" stroke="#151515" stroke-linejoin="round"/>
<path fill-rule="evenodd" clip-rule="evenodd" d="M38.2147 58.3756L49.4221 58.2229C50.1802 58.2225 50.8991 58.1251 51.5441 57.9513C52.0826 57.8107 52.5875 57.6126 53.0304 57.3569L69.9613 47.5827C70.1582 47.469 70.4769 47.4686 70.673 47.5819C70.7671 47.6361 70.8197 47.7098 70.8194 47.7869L70.8078 52.6416C70.8069 53.0272 70.5405 53.3973 70.0673 53.6705L56.5773 61.4582C52.6481 63.7266 46.2837 63.7301 42.362 61.4661L37.8679 58.8717C37.672 58.7586 37.6726 58.5747 37.8695 58.461C37.9614 58.4079 38.0849 58.3773 38.2147 58.3756Z" fill="#8E44EC" stroke="#151515" stroke-linejoin="round"/>
<path d="M70.0677 39.6713C70.5409 39.3982 70.8073 39.028 70.8082 38.6425L70.8198 47.787L70.8082 52.6418C70.8073 53.0273 70.5409 53.3974 70.0677 53.6706L56.5777 61.4584C54.6017 62.5991 52.0098 63.1671 49.4225 63.1619V49.1627C52.0098 49.1678 54.6017 48.5998 56.5777 47.4591L70.0677 39.6713Z" fill="#151515" stroke="#151515" stroke-linejoin="round"/>
<path d="M37.8679 44.8728L42.362 47.4672C44.3115 48.5927 46.8646 49.1578 49.4221 49.1629V63.1621C46.8646 63.157 44.3115 62.592 42.362 61.4665L37.8679 58.8721C37.767 58.8138 37.7182 58.7368 37.7215 58.6602V44.6756C37.7246 44.7472 37.7734 44.8182 37.8679 44.8728Z" fill="#B382F2" stroke="#151515" stroke-linejoin="round"/>
<path fill-rule="evenodd" clip-rule="evenodd" d="M38.215 44.3766L49.4225 44.224C50.1805 44.2235 50.8995 44.1262 51.5444 43.9524C52.083 43.8117 52.5878 43.6137 53.0307 43.358L69.9616 33.5838C70.1586 33.4701 70.4772 33.4697 70.6734 33.5829C70.7674 33.6372 70.82 33.7109 70.8197 33.7879L70.8081 38.6427C70.8073 39.0282 70.5408 39.3983 70.0676 39.6715L56.5777 47.4593C52.6484 49.7276 46.284 49.7312 42.3623 47.4672L37.8682 44.8728C37.6723 44.7597 37.6729 44.5757 37.8698 44.4621C37.9617 44.409 38.0853 44.3784 38.215 44.3766Z" fill="#8E44EC" stroke="#151515" stroke-linejoin="round"/>
<path d="M22.1237 18.1566C22.5971 17.8832 22.8633 17.513 22.864 17.1273V26.2216C22.8694 26.2388 22.8722 26.2564 22.8722 26.2742L22.864 31.1266C22.8633 31.5123 22.5971 31.8825 22.1237 32.1558L16.9787 35.126C12.2217 37.8723 10.991 39.1535 10.1802 40.6934C9.77864 41.4561 9.57531 42.2272 9.57026 42.9983V43.0573C9.57013 43.0377 9.57013 43.018 9.57026 42.9983V28.999C9.57532 28.2279 9.77864 27.4568 10.1802 26.6941C10.991 25.1542 12.2217 23.873 16.9787 21.1268L22.1237 18.1566Z" fill="#151515" stroke="#151515" stroke-linejoin="round"/>
<path d="M17.5085 33.1192L30.9764 40.8943C31.2139 41.0314 31.4943 41.138 31.7995 41.21V55.2093C31.4943 55.1373 31.2139 55.0306 30.9764 54.8935L17.5085 47.1185C15.5681 45.9983 14.5893 44.5329 14.5714 43.0634V29.0641C14.5711 29.0368 14.5711 29.0095 14.5714 28.9822V29.0641C14.5893 30.5336 15.5681 31.999 17.5085 33.1192Z" fill="#B382F2" stroke="#151515" stroke-linejoin="round"/>
<path d="M14.9822 41.3276H23.8912V55.0396C23.8874 55.1111 23.8381 55.1821 23.7434 55.2368C23.6487 55.2914 23.5204 55.3221 23.3869 55.3223L14.9822 55.3269C14.623 55.3271 14.272 55.283 13.9511 55.1997V41.2004C14.272 41.2837 14.623 41.3278 14.9822 41.3276Z" fill="#151515"/>
<path d="M23.8912 41.3276H14.9822M14.9822 41.3276V55.3269M14.9822 41.3276C14.623 41.3278 14.272 41.2837 13.9511 41.2004V55.1997C14.272 55.283 14.623 55.3271 14.9822 55.3269M14.9822 55.3269L23.3869 55.3223C23.5204 55.3221 23.6487 55.2914 23.7434 55.2368C23.8381 55.1821 23.8874 55.1111 23.8912 55.0396V41.0223" stroke="#151515" stroke-linejoin="round"/>
<path d="M10.8433 39.5403L13.2059 40.9042C13.4226 41.0294 13.675 41.1291 13.9495 41.2003V55.1996C13.675 55.1284 13.4226 55.0286 13.2059 54.9035L10.8433 53.5396C4.5127 49.885 2.87749 48.1784 1.80322 46.1264C1.26147 45.0916 0.993813 44.0448 1.00023 42.9979V29.0722C1.00008 29.0477 1.00008 29.0231 1.00023 28.9986V29.0722C1.00651 30.0945 1.27417 31.1166 1.80322 32.1271C2.87749 34.1792 4.5127 35.8857 10.8433 39.5403Z" fill="#B382F2" stroke="#151515" stroke-linejoin="round"/>
<path fill-rule="evenodd" clip-rule="evenodd" d="M78.5149 27.5946L70.1101 27.5991C69.4439 27.5995 68.8057 27.4472 68.3355 27.1758L63.1968 24.2092C58.4488 21.4682 56.2319 20.7602 53.5659 20.2951C50.9002 19.8299 48.1729 19.8315 45.5057 20.2995C42.8382 20.7676 40.6188 21.4781 35.8617 24.2243L29.0582 28.152C28.8613 28.2657 28.5427 28.2661 28.3466 28.1529C28.2526 28.0986 28.1999 28.0249 28.2 27.948L28.208 23.0958C28.2086 22.71 28.475 22.3397 28.9485 22.0664L31.3117 20.7021C37.6545 17.0404 40.6138 16.093 44.1703 15.4689C47.7269 14.8448 51.3629 14.8429 54.9173 15.4631C58.472 16.0831 61.428 17.0271 67.7586 20.6818L78.8729 27.0981C79.0691 27.2113 79.0684 27.3953 78.8715 27.509C78.7768 27.5636 78.6483 27.5944 78.5149 27.5946Z" fill="#151515" stroke="#151515" stroke-linejoin="round"/>
<path d="M63.1962 10.2101L68.335 13.1767C68.5736 13.3145 68.8556 13.4216 69.1626 13.4936V27.4929C68.8556 27.4209 68.5736 27.3138 68.335 27.176L63.1962 24.2094C58.4483 21.4684 56.2313 20.7604 53.5654 20.2953C52.2688 20.0691 50.9577 19.9532 49.646 19.9478V5.94849C50.9577 5.95394 52.2688 6.06977 53.5654 6.29603C56.2313 6.76108 58.4483 7.46915 63.1962 10.2101Z" fill="#B382F2" stroke="#151515" stroke-linejoin="round"/>
<path d="M70.1101 13.6003L78.5149 13.5957C78.6483 13.5956 78.7768 13.5647 78.8715 13.5101C78.9652 13.456 79.0144 13.386 79.0192 13.3153V27.2918C79.0245 27.3701 78.9752 27.4495 78.8715 27.5094C78.7768 27.564 78.6483 27.5948 78.5149 27.595L70.1101 27.5995C69.7821 27.5997 69.4609 27.5629 69.1632 27.4931V13.4938C69.4609 13.5636 69.7821 13.6004 70.1101 13.6003Z" fill="#151515"/>
<path d="M35.8617 10.2255C40.6188 7.47922 42.8382 6.76874 45.5057 6.30062C46.8757 6.06026 48.2614 5.94293 49.6466 5.94869V19.948C48.2614 19.9422 46.8757 20.0595 45.5057 20.2999C42.8382 20.768 40.6188 21.4785 35.8617 24.2247L29.0582 28.1524C28.8613 28.2661 28.5427 28.2665 28.3466 28.1533C28.2526 28.099 28.1999 28.0253 28.2 27.9484L28.208 14.001C28.226 14.0586 28.274 14.1121 28.3466 14.154C28.5427 14.2672 28.8613 14.2668 29.0582 14.1531L35.8617 10.2255Z" fill="#151515"/>
<path d="M78.8729 27.0985C78.9657 27.1521 79.0145 27.2215 79.0192 27.2918M79.0192 27.2918C79.0245 27.3701 78.9752 27.4495 78.8715 27.5094C78.7768 27.564 78.6483 27.5948 78.5149 27.595L70.1101 27.5995C69.7821 27.5997 69.4609 27.5629 69.1632 27.4931V13.4938C69.4609 13.5636 69.7821 13.6004 70.1101 13.6003L78.5149 13.5957C78.6483 13.5956 78.7768 13.5647 78.8715 13.5101C78.9652 13.456 79.0144 13.386 79.0192 13.3153V27.2918ZM45.5057 6.30062C42.8382 6.76874 40.6188 7.47922 35.8617 10.2255L29.0582 14.1531C28.8613 14.2668 28.5427 14.2672 28.3466 14.154C28.274 14.1121 28.226 14.0586 28.208 14.001L28.2 27.9484C28.1999 28.0253 28.2526 28.099 28.3466 28.1533C28.5427 28.2665 28.8613 28.2661 29.0582 28.1524L35.8617 24.2247C40.6188 21.4785 42.8382 20.768 45.5057 20.2999C46.8757 20.0595 48.2614 19.9422 49.6466 19.948V5.94869C48.2614 5.94293 46.8757 6.06026 45.5057 6.30062Z" stroke="#151515" stroke-linejoin="round"/>
<path fill-rule="evenodd" clip-rule="evenodd" d="M78.5149 13.5952L70.1102 13.5998C69.4439 13.6001 68.8057 13.4478 68.3356 13.1764L63.1968 10.2098C58.4489 7.46885 56.232 6.76078 53.566 6.29573C50.9003 5.83054 48.173 5.83214 45.5058 6.30012C42.8383 6.76824 40.6189 7.47872 35.8618 10.225L29.0583 14.1526C28.8614 14.2663 28.5428 14.2667 28.3467 14.1535C28.2526 14.0992 28.1999 14.0255 28.2 13.9486L28.208 9.09638C28.2087 8.71067 28.4751 8.3403 28.9485 8.06699L31.3118 6.70268C37.6546 3.04098 40.6138 2.09366 44.1704 1.46955C47.7269 0.845441 51.363 0.843488 54.9174 1.4637C58.472 2.08376 61.4281 3.02776 67.7586 6.68241L78.873 13.0987C79.0691 13.2119 79.0685 13.3959 78.8715 13.5096C78.7769 13.5642 78.6484 13.5951 78.5149 13.5952Z" fill="#8E44EC" stroke="#151515" stroke-linejoin="round"/>
<path fill-rule="evenodd" clip-rule="evenodd" d="M76.1248 59.7217L76.1327 54.8694C76.1334 54.4837 76.3998 54.1133 76.8732 53.84L82.0181 50.8699C86.7751 48.1236 88.0059 46.8424 88.8165 45.3026C89.6274 43.7627 89.63 42.1884 88.8244 40.6493C88.0186 39.1103 86.7923 37.8304 82.0444 35.0894L75.2545 31.1696C75.0584 31.0564 75.0593 30.8726 75.2559 30.759C75.3508 30.7042 75.4789 30.6734 75.6126 30.6734L84.0171 30.6687C84.6833 30.6683 85.3215 30.8206 85.7917 31.092L88.1543 32.456C94.4849 36.1107 96.1201 37.8171 97.1945 39.8692C98.2687 41.9211 98.2652 44.0203 97.1842 46.0736C96.1029 48.1267 94.4624 49.835 88.1196 53.4967L76.9829 59.9259C76.786 60.0396 76.4675 60.0398 76.2714 59.9266C76.1774 59.8723 76.1248 59.7987 76.1248 59.7217Z" fill="#151515" stroke="#151515" stroke-linejoin="round"/>
<path d="M82.0444 21.09C86.7923 23.8309 88.0186 25.1109 88.8244 26.6498C89.1706 27.3112 89.3675 27.979 89.4152 28.6479V42.6472C89.4305 42.861 89.4305 43.0748 89.4152 43.2887V42.6472C89.3675 41.9783 89.1706 41.3105 88.8244 40.6491C88.0186 39.1101 86.7923 37.8302 82.0444 35.0892L75.2545 31.1694C75.1458 31.1067 75.0976 31.0222 75.1097 30.94V16.9905C75.1073 16.9739 75.1073 16.9573 75.1097 16.9408V16.9905C75.1194 17.0561 75.1677 17.12 75.2545 17.1701L82.0444 21.09Z" fill="#B382F2" stroke="#151515" stroke-linejoin="round"/>
<path d="M88.1221 39.4974C94.4649 35.8357 96.1054 34.1274 97.1866 32.0743C97.6745 31.1478 97.9429 30.2118 97.9919 29.2751V28.6481C98.0028 28.8571 98.0028 29.0661 97.9919 29.2751V42.6474C98.0517 43.793 97.7833 44.9403 97.1866 46.0736C96.1054 48.1267 94.4649 49.835 88.1221 53.4967L76.9854 59.9259C76.7885 60.0396 76.47 60.0398 76.2739 59.9266C76.1799 59.8723 76.1273 59.7987 76.1273 59.7217V45.7226C76.1274 45.7995 76.18 45.8731 76.2739 45.9273C76.47 46.0406 76.7885 46.0403 76.9854 45.9266L88.1221 39.4974Z" fill="#151515" stroke="#151515" stroke-linejoin="round"/>
<path fill-rule="evenodd" clip-rule="evenodd" d="M76.1248 45.7225L76.1327 40.8702C76.1334 40.4845 76.3998 40.1141 76.8732 39.8408L82.0181 36.8707C86.7751 34.1244 88.0059 32.8432 88.8165 31.3034C89.6274 29.7635 89.63 28.1892 88.8244 26.6501C88.0186 25.1111 86.7923 23.8312 82.0444 21.0902L75.2545 17.1704C75.0584 17.0572 75.0593 16.8734 75.2559 16.7598C75.3508 16.705 75.4789 16.6742 75.6126 16.6742L84.0171 16.6695C84.6833 16.6691 85.3215 16.8214 85.7917 17.0928L88.1543 18.4568C94.4849 22.1115 96.1201 23.818 97.1945 25.87C98.2687 27.9219 98.2652 30.0212 97.1842 32.0744C96.1029 34.1275 94.4624 35.8358 88.1196 39.4975L76.9829 45.9267C76.786 46.0404 76.4675 46.0406 76.2714 45.9274C76.1774 45.8731 76.1248 45.7995 76.1248 45.7225Z" fill="#8E44EC" stroke="#151515" stroke-linejoin="round"/>
<path d="M28.8893 58.3974L20.4846 58.402C20.3511 58.4022 20.2227 58.4329 20.128 58.4875C19.9312 58.6012 19.9306 58.7851 20.1267 58.8984L31.2411 65.3147C37.5715 68.9693 40.5277 69.9134 44.0821 70.5335C47.6366 71.1537 51.2727 71.1516 54.8293 70.5275C58.3859 69.9035 61.345 68.9562 67.6877 65.2945L70.0511 63.9301C70.5244 63.6569 70.7908 63.2865 70.7915 62.9008L70.7995 58.0484C70.7998 57.9716 70.7469 57.8978 70.6529 57.8435C70.4568 57.7303 70.1383 57.7308 69.9414 57.8445L63.1378 61.7722C58.3808 64.5185 56.1614 65.2289 53.4938 65.6969C50.8264 66.165 48.0993 66.1665 45.4334 65.7014C42.7676 65.2362 40.5508 64.5284 35.8027 61.7873L30.664 58.8207C30.1938 58.5493 29.5556 58.397 28.8893 58.3974Z" fill="#151515" stroke="#151515" stroke-linejoin="round"/>
<path d="M31.2411 51.3158C37.5715 54.9704 40.5277 55.9145 44.0821 56.5346C45.8082 56.8358 47.5536 56.9902 49.2998 56.9979V70.9972C47.5536 70.9895 45.8082 70.835 44.0821 70.5338C40.5277 69.9138 37.5715 68.9696 31.2411 65.3151L20.1267 58.8987C20.0262 58.8408 19.9774 58.7642 19.9801 58.6881V44.7008C19.9799 44.6968 19.9799 44.6928 19.9801 44.6888V44.7008C19.9827 44.7729 20.0315 44.8445 20.1267 44.8995L31.2411 51.3158Z" fill="#B382F2"/>
<path d="M20.128 58.4879C20.032 58.5434 19.9827 58.6155 19.9801 58.6881M19.9801 58.6881C19.9774 58.7642 20.0262 58.8408 20.1267 58.8987L31.2411 65.3151C37.5715 68.9696 40.5277 69.9138 44.0821 70.5338C45.8082 70.835 47.5536 70.9895 49.2998 70.9972V56.9979C47.5536 56.9902 45.8082 56.8358 44.0821 56.5346C40.5277 55.9145 37.5715 54.9704 31.2411 51.3158L20.1267 44.8995C20.0262 44.8415 19.9774 44.7649 19.9801 44.6888V58.6881Z" stroke="#151515" stroke-linejoin="round"/>
<path d="M70.0515 49.9311C70.5249 49.6578 70.7912 49.2874 70.7919 48.9017V62.901C70.7912 63.2867 70.5249 63.6571 70.0515 63.9304L67.6881 65.2947C61.3454 68.9564 58.3863 69.9037 54.8297 70.5278C53.0002 70.8488 51.1498 71.0052 49.3002 70.9971V56.9978C51.1498 57.0059 53.0002 56.8495 54.8297 56.5285C58.3863 55.9044 61.3454 54.9571 67.6881 51.2954L70.0515 49.9311Z" fill="#151515" stroke="#151515" stroke-linejoin="round"/>
<path d="M28.8892 44.398L20.4845 44.4025C20.351 44.4027 20.2226 44.4334 20.1279 44.4881C19.9311 44.6018 19.9305 44.7857 20.1266 44.8989L31.241 51.3153C37.5714 54.9698 40.5276 55.9139 44.082 56.534C47.6365 57.1542 51.2726 57.1522 54.8292 56.5281C58.3858 55.904 61.3449 54.9567 67.6876 51.295L70.051 49.9307C70.5244 49.6574 70.7907 49.287 70.7914 48.9014L70.7994 44.0489C70.7997 43.9721 70.7468 43.8983 70.6528 43.8441C70.4567 43.7308 70.1382 43.7314 69.9413 43.845L63.1377 47.7728C58.3807 50.519 56.1613 51.2295 53.4937 51.6975C50.8263 52.1655 48.0992 52.1671 45.4333 51.7019C42.7675 51.2368 40.5507 50.5289 35.8026 47.7878L30.6639 44.8213C30.1938 44.5498 29.5555 44.3976 28.8892 44.398Z" fill="#8E44EC" stroke="#151515" stroke-linejoin="round"/>
<path fill-rule="evenodd" clip-rule="evenodd" d="M60.7856 27.6196L49.5782 27.7722C48.8201 27.7727 48.101 27.87 47.4562 28.0438C46.9175 28.1844 46.4128 28.3825 45.9699 28.6382L29.0389 38.4124C28.842 38.5261 28.5235 38.5265 28.3274 38.4133C28.2333 38.359 28.1805 38.2852 28.1807 38.2083L28.1922 33.3535C28.1932 32.968 28.4596 32.5979 28.9328 32.3247L42.4228 24.5369C46.3521 22.2685 52.7164 22.265 56.6382 24.5291L61.1321 27.1234C61.3282 27.2366 61.3278 27.4204 61.1309 27.5341C61.039 27.5872 60.9153 27.6178 60.7856 27.6196Z" fill="#8E44EC" stroke="#151515" stroke-linejoin="round"/>
<path d="M49.5791 13.7733L60.7865 13.6207C60.9162 13.6189 61.0399 13.5882 61.1318 13.5352C61.2286 13.4793 61.278 13.4064 61.2798 13.3333V27.3244C61.2816 27.4002 61.2323 27.4765 61.1318 27.5345C61.0399 27.5875 60.9162 27.6181 60.7865 27.6199L49.5791 27.7726C48.821 27.773 48.1019 27.8704 47.4571 28.0442V14.0449C48.1019 13.8711 48.821 13.7738 49.5791 13.7733Z" fill="#B382F2"/>
<path d="M61.1331 27.1238C61.2291 27.1792 61.278 27.2516 61.2798 27.3244M61.2798 27.3244C61.2816 27.4002 61.2323 27.4765 61.1318 27.5345C61.0399 27.5875 60.9162 27.6181 60.7865 27.6199L49.5791 27.7726C48.821 27.773 48.1019 27.8704 47.4571 28.0442V14.0449C48.1019 13.8711 48.821 13.7738 49.5791 13.7733L60.7865 13.6207C60.9162 13.6189 61.0399 13.5882 61.1318 13.5352C61.2286 13.4793 61.278 13.4064 61.2798 13.3333V27.3244Z" stroke="#151515" stroke-linejoin="round"/>
<path d="M45.9699 14.6386C46.4128 14.383 46.9175 14.1849 47.4562 14.0443V28.0436C46.9175 28.1842 46.4128 28.3822 45.9699 28.6379L29.0389 38.4122C28.842 38.5259 28.5235 38.5262 28.3274 38.413C28.2333 38.3587 28.1805 38.285 28.1807 38.208V24.2095C28.1809 24.2862 28.2336 24.3596 28.3274 24.4138C28.5235 24.527 28.842 24.5266 29.0389 24.4129L45.9699 14.6386Z" fill="#151515"/>
<path d="M28.1807 38.208C28.1805 38.285 28.2333 38.3587 28.3274 38.413C28.5235 38.5262 28.842 38.5259 29.0389 38.4122L45.9699 28.6379C46.4128 28.3822 46.9175 28.1842 47.4562 28.0436V14.0443C46.9175 14.1849 46.4128 14.383 45.9699 14.6386L29.0389 24.4129C28.842 24.5266 28.5235 24.527 28.3274 24.4138C28.2333 24.3594 28.1805 24.2857 28.1807 24.2087V38.208ZM28.1807 38.208L28.1922 33.3532" stroke="#151515" stroke-linejoin="round"/>
<path fill-rule="evenodd" clip-rule="evenodd" d="M60.7859 13.6202L49.5786 13.7728C48.8204 13.7733 48.1013 13.8706 47.4565 14.0445C46.9179 14.185 46.4131 14.3831 45.9702 14.6388L29.0392 24.4131C28.8424 24.5267 28.5238 24.5271 28.3277 24.4139C28.2336 24.3596 28.1809 24.2858 28.1811 24.2089L28.1926 19.3541C28.1935 18.9686 28.4599 18.5985 28.9332 18.3253L42.4231 10.5375C46.3525 8.26914 52.7168 8.26567 56.6385 10.5297L61.1325 13.1241C61.3286 13.2373 61.3281 13.4211 61.1312 13.5348C61.0393 13.5878 60.9156 13.6184 60.7859 13.6202Z" fill="#8E44EC" stroke="#151515" stroke-linejoin="round"/>
<path fill-rule="evenodd" clip-rule="evenodd" d="M76.1196 49.4877L75.8764 43.0159C75.8772 42.5783 75.7101 42.1633 75.4101 41.7913C75.1675 41.4806 74.8252 41.1897 74.3832 40.9345L57.4855 31.1795C57.2894 31.0663 57.2901 30.8824 57.487 30.7687C57.5817 30.7141 57.7101 30.6832 57.8438 30.6832L66.2529 30.6806C66.9189 30.6803 67.5566 30.8326 68.0265 31.1039L81.4944 38.8789C85.4163 41.143 85.4102 44.8171 81.4809 47.0855L76.9777 49.6852C76.7808 49.7989 76.4621 49.7993 76.266 49.6861C76.1747 49.6334 76.1221 49.5624 76.1196 49.4877Z" fill="#8E44EC" stroke="#151515" stroke-linejoin="round"/>
<path fill-rule="evenodd" clip-rule="evenodd" d="M76.1196 35.4888L75.8764 29.017C75.8772 28.5793 75.7101 28.1644 75.4101 27.7924C75.1675 27.4817 74.8252 27.1908 74.3832 26.9356L57.4855 17.1806C57.2894 17.0674 57.2901 16.8834 57.487 16.7698C57.5817 16.7151 57.7101 16.6843 57.8438 16.6843L66.2529 16.6817C66.9189 16.6814 67.5566 16.8337 68.0265 17.105L81.4944 24.88C85.4163 27.1441 85.4102 30.8182 81.4809 33.0866L76.9777 35.6863C76.7808 35.8 76.4621 35.8004 76.266 35.6871C76.1747 35.6345 76.1221 35.5635 76.1196 35.4888Z" fill="#8E44EC" stroke="#151515" stroke-linejoin="round"/>
<path d="M75.4101 27.7925C75.7101 28.1645 75.8772 28.5795 75.8764 29.0171V43.0098C75.8755 42.5745 75.7086 42.1619 75.4101 41.7918C75.1675 41.4811 74.8252 41.1902 74.3832 40.935L57.4855 31.18C57.3861 31.1226 57.3373 31.0471 57.3389 30.9718V16.9797C57.3405 17.0526 57.3893 17.1252 57.4855 17.1807L74.3832 26.9357C74.8252 27.1909 75.1675 27.4818 75.4101 27.7925Z" fill="#B382F2" stroke="#151515" stroke-linejoin="round"/>
<path d="M75.8772 29.0172L76.1204 35.489C76.1229 35.5637 76.1756 35.6347 76.2668 35.6873C76.4629 35.8006 76.7816 35.8002 76.9785 35.6865L81.4817 33.0868C83.4308 31.9616 84.4146 30.4905 84.4325 29.0172V43.0165C84.4146 44.4898 83.4308 45.9609 81.4817 47.0861L76.9785 49.6858C76.7816 49.7995 76.4629 49.7998 76.2668 49.6866C76.1756 49.6339 76.1229 49.5629 76.1204 49.4883L75.8772 43.0165V29.0172Z" fill="#151515" stroke="#151515" stroke-linejoin="round"/>
<path fill-rule="evenodd" clip-rule="evenodd" d="M78.5158 13.5955L70.111 13.6001C69.4448 13.6005 68.8066 13.4482 68.3365 13.1768L63.1977 10.2102C58.4498 7.46918 56.2329 6.76111 53.5669 6.29606C50.9011 5.83088 48.1739 5.83247 45.5066 6.30046C42.8392 6.76857 40.6197 7.47905 35.8627 10.2253L29.0592 14.153C28.8622 14.2666 28.5436 14.2671 28.3475 14.1539C28.2535 14.0996 28.2008 14.0259 28.2009 13.949L28.2089 9.09671C28.2095 8.71101 28.476 8.34064 28.9494 8.06732L31.3127 6.70302C37.6555 3.04132 40.6147 2.094 44.1712 1.46989C47.7278 0.845777 51.3638 0.843824 54.9183 1.46403C58.4729 2.08409 61.4289 3.0281 67.7595 6.68274L78.8739 13.0991C79.07 13.2123 79.0693 13.3963 78.8724 13.5099C78.7778 13.5646 78.6493 13.5954 78.5158 13.5955Z" fill="#8E44EC"/>
<path fill-rule="evenodd" clip-rule="evenodd" d="M76.1257 45.7233L76.1335 40.871C76.1342 40.4853 76.4006 40.1149 76.8741 39.8416L82.0189 36.8714C86.776 34.1252 88.0067 32.8439 88.8174 31.3042C89.6283 29.7642 89.6308 28.1899 88.8253 26.6508C88.0194 25.1119 86.7931 23.8319 82.0453 21.091L75.2553 17.1712C75.0592 17.058 75.0601 16.8741 75.2568 16.7606C75.3517 16.7058 75.4797 16.675 75.6134 16.675L84.0179 16.6703C84.6842 16.6699 85.3224 16.8222 85.7925 17.0936L88.1551 18.4575C94.4858 22.1122 96.1209 23.8187 97.1954 25.8707C98.2695 27.9226 98.2661 30.0219 97.185 32.0751C96.1037 34.1282 94.4632 35.8366 88.1204 39.4983L76.9838 45.9275C76.7868 46.0411 76.4684 46.0414 76.2723 45.9282C76.1783 45.8739 76.1256 45.8002 76.1257 45.7233Z" fill="#8E44EC"/>
<path fill-rule="evenodd" clip-rule="evenodd" d="M20.4823 44.4023L28.8871 44.3978C29.5533 44.3974 30.1916 44.5497 30.6617 44.8211L35.8004 47.7876C40.5485 50.5287 42.7653 51.2366 45.4312 51.7017C48.0971 52.1669 50.8242 52.1653 53.4915 51.6973C56.1592 51.2293 58.3785 50.5188 63.1356 47.7726L69.9392 43.8448C70.1361 43.7312 70.4545 43.7306 70.6507 43.8439C70.7447 43.8981 70.7976 43.9719 70.7973 44.0487L70.7893 48.9011C70.7886 49.2868 70.5222 49.6572 70.0488 49.9305L67.6855 51.2948C61.3428 54.9565 58.3836 55.9038 54.827 56.5279C51.2704 57.152 47.6344 57.154 44.0798 56.5338C40.5255 55.9137 37.5693 54.9696 31.2389 51.3151L20.1244 44.8987C19.9283 44.7855 19.9289 44.6016 20.1258 44.4879C20.2205 44.4332 20.3488 44.4025 20.4823 44.4023Z" fill="#8E44EC"/>
<path fill-rule="evenodd" clip-rule="evenodd" d="M22.8729 12.2748L22.8647 17.1272C22.8641 17.5129 22.5979 17.8831 22.1244 18.1565L16.9795 21.1266C12.2224 23.8729 10.9917 25.1541 10.1809 26.694C9.37013 28.2339 9.36753 29.8083 10.1732 31.3473C10.9789 32.8863 12.2053 34.1662 16.9533 36.9072L23.743 40.8269C23.9391 40.9401 23.9385 41.124 23.7416 41.2377C23.6469 41.2923 23.5186 41.3231 23.3851 41.3232L14.9804 41.3278C14.3141 41.3282 13.6759 41.176 13.2057 40.9045L10.8432 39.5406C4.51257 35.886 2.87736 34.1795 1.8031 32.1275C0.728852 30.0755 0.73233 27.9763 1.81342 25.9231C2.89448 23.8699 4.53537 22.1616 10.8781 18.4999L22.0147 12.0708C22.2116 11.9571 22.5302 11.9567 22.7263 12.0699C22.8203 12.1242 22.873 12.1979 22.8729 12.2748Z" fill="#8E44EC"/>
<path fill-rule="evenodd" clip-rule="evenodd" d="M60.7841 13.6204L49.5768 13.773C48.8186 13.7735 48.0996 13.8708 47.4547 14.0446C46.9161 14.1852 46.4114 14.3833 45.9685 14.639L29.0375 24.4133C28.8406 24.5269 28.522 24.5273 28.3259 24.4141C28.2319 24.3598 28.1791 24.286 28.1793 24.2091L28.1908 19.3543C28.1918 18.9688 28.4582 18.5987 28.9314 18.3255L42.4213 10.5377C46.3507 8.26932 52.715 8.26586 56.6367 10.5299L61.1307 13.1242C61.3268 13.2374 61.3264 13.4213 61.1294 13.5349C61.0376 13.588 60.9138 13.6186 60.7841 13.6204Z" fill="#8E44EC"/>
<path fill-rule="evenodd" clip-rule="evenodd" d="M76.1195 35.489L75.8764 29.0172C75.8772 28.5795 75.7101 28.1646 75.41 27.7926C75.1675 27.4818 74.8251 27.1909 74.3831 26.9358L57.4855 17.1807C57.2894 17.0675 57.2901 16.8836 57.487 16.7699C57.5816 16.7153 57.7101 16.6845 57.8438 16.6844L66.2529 16.6818C66.9189 16.6816 67.5566 16.8339 68.0265 17.1051L81.4943 24.8801C85.4162 27.1442 85.4102 30.8184 81.4809 33.0868L76.9777 35.6865C76.7807 35.8002 76.4621 35.8005 76.2659 35.6873C76.1747 35.6346 76.122 35.5636 76.1195 35.489Z" fill="#8E44EC"/>
<path fill-rule="evenodd" clip-rule="evenodd" d="M38.2144 44.3771L49.4219 44.2244C50.1799 44.2239 50.8989 44.1266 51.5438 43.9528C52.0824 43.8122 52.5872 43.6141 53.0301 43.3584L69.9611 33.5842C70.158 33.4705 70.4767 33.4701 70.6728 33.5834C70.7668 33.6376 70.8194 33.7113 70.8192 33.7884L70.8076 38.6431C70.8067 39.0286 70.5403 39.3988 70.0671 39.6719L56.5771 47.4597C52.6478 49.7281 46.2834 49.7316 42.3617 47.4676L37.8676 44.8732C37.6717 44.7601 37.6723 44.5761 37.8692 44.4625C37.9611 44.4094 38.0847 44.3788 38.2144 44.3771Z" fill="#8E44EC"/>
<path fill-rule="evenodd" clip-rule="evenodd" d="M22.8824 22.5104L23.1255 28.9823C23.1248 29.4199 23.2919 29.8348 23.5919 30.2067C23.8343 30.5174 24.1765 30.8085 24.6185 31.0636L41.5164 40.8188C41.7125 40.932 41.7116 41.1158 41.5148 41.2294C41.42 41.2841 41.2916 41.3149 41.1579 41.3149L32.749 41.3176C32.0831 41.3178 31.4453 41.1656 30.9754 40.8943L17.5074 33.1192C13.5857 30.8552 13.5918 27.181 17.5211 24.9127L22.0244 22.3129C22.2213 22.1992 22.5398 22.1989 22.7359 22.3121C22.8272 22.3647 22.8796 22.4358 22.8824 22.5104Z" fill="#8E44EC"/>
<path fill-rule="evenodd" clip-rule="evenodd" d="M78.5158 13.5955L70.111 13.6001C69.4448 13.6005 68.8066 13.4482 68.3365 13.1768L63.1977 10.2102C58.4498 7.46918 56.2329 6.76111 53.5669 6.29606C50.9011 5.83088 48.1739 5.83247 45.5066 6.30046C42.8392 6.76857 40.6197 7.47905 35.8627 10.2253L29.0592 14.153C28.8622 14.2666 28.5436 14.2671 28.3475 14.1539C28.2535 14.0996 28.2008 14.0259 28.2009 13.949L28.2089 9.09671C28.2095 8.71101 28.476 8.34064 28.9494 8.06732L31.3127 6.70302C37.6555 3.04132 40.6147 2.094 44.1712 1.46989C47.7278 0.845777 51.3638 0.843824 54.9183 1.46403C58.4729 2.08409 61.4289 3.0281 67.7595 6.68274L78.8739 13.0991C79.07 13.2123 79.0693 13.3963 78.8724 13.5099C78.7778 13.5646 78.6493 13.5954 78.5158 13.5955Z" stroke="#151515" stroke-linejoin="round"/>
<path fill-rule="evenodd" clip-rule="evenodd" d="M76.1257 45.7233L76.1335 40.871C76.1342 40.4853 76.4006 40.1149 76.8741 39.8416L82.0189 36.8714C86.776 34.1252 88.0067 32.8439 88.8174 31.3042C89.6283 29.7642 89.6308 28.1899 88.8253 26.6508C88.0194 25.1119 86.7931 23.8319 82.0453 21.091L75.2553 17.1712C75.0592 17.058 75.0601 16.8741 75.2568 16.7606C75.3517 16.7058 75.4797 16.675 75.6134 16.675L84.0179 16.6703C84.6842 16.6699 85.3224 16.8222 85.7925 17.0936L88.1551 18.4575C94.4858 22.1122 96.1209 23.8187 97.1954 25.8707C98.2695 27.9226 98.2661 30.0219 97.185 32.0751C96.1037 34.1282 94.4632 35.8366 88.1204 39.4983L76.9838 45.9275C76.7868 46.0411 76.4684 46.0414 76.2723 45.9282C76.1783 45.8739 76.1256 45.8002 76.1257 45.7233Z" stroke="#151515" stroke-linejoin="round"/>
<path fill-rule="evenodd" clip-rule="evenodd" d="M20.4823 44.4023L28.8871 44.3978C29.5533 44.3974 30.1916 44.5497 30.6617 44.8211L35.8004 47.7876C40.5485 50.5287 42.7653 51.2366 45.4312 51.7017C48.0971 52.1669 50.8242 52.1653 53.4915 51.6973C56.1592 51.2293 58.3785 50.5188 63.1356 47.7726L69.9392 43.8448C70.1361 43.7312 70.4545 43.7306 70.6507 43.8439C70.7447 43.8981 70.7976 43.9719 70.7973 44.0487L70.7893 48.9011C70.7886 49.2868 70.5222 49.6572 70.0488 49.9305L67.6855 51.2948C61.3428 54.9565 58.3836 55.9038 54.827 56.5279C51.2704 57.152 47.6344 57.154 44.0798 56.5338C40.5255 55.9137 37.5693 54.9696 31.2389 51.3151L20.1244 44.8987C19.9283 44.7855 19.9289 44.6016 20.1258 44.4879C20.2205 44.4332 20.3488 44.4025 20.4823 44.4023Z" stroke="#151515" stroke-linejoin="round"/>
<path fill-rule="evenodd" clip-rule="evenodd" d="M22.8729 12.2748L22.8647 17.1272C22.8641 17.5129 22.5979 17.8831 22.1244 18.1565L16.9795 21.1266C12.2224 23.8729 10.9917 25.1541 10.1809 26.694C9.37013 28.2339 9.36753 29.8083 10.1732 31.3473C10.9789 32.8863 12.2053 34.1662 16.9533 36.9072L23.743 40.8269C23.9391 40.9401 23.9385 41.124 23.7416 41.2377C23.6469 41.2923 23.5186 41.3231 23.3851 41.3232L14.9804 41.3278C14.3141 41.3282 13.6759 41.176 13.2057 40.9045L10.8432 39.5406C4.51257 35.886 2.87736 34.1795 1.8031 32.1275C0.728852 30.0755 0.73233 27.9763 1.81342 25.9231C2.89448 23.8699 4.53537 22.1616 10.8781 18.4999L22.0147 12.0708C22.2116 11.9571 22.5302 11.9567 22.7263 12.0699C22.8203 12.1242 22.873 12.1979 22.8729 12.2748Z" stroke="#151515" stroke-linejoin="round"/>
<path fill-rule="evenodd" clip-rule="evenodd" d="M60.7841 13.6204L49.5768 13.773C48.8186 13.7735 48.0996 13.8708 47.4547 14.0446C46.9161 14.1852 46.4114 14.3833 45.9685 14.639L29.0375 24.4133C28.8406 24.5269 28.522 24.5273 28.3259 24.4141C28.2319 24.3598 28.1791 24.286 28.1793 24.2091L28.1908 19.3543C28.1918 18.9688 28.4582 18.5987 28.9314 18.3255L42.4213 10.5377C46.3507 8.26932 52.715 8.26586 56.6367 10.5299L61.1307 13.1242C61.3268 13.2374 61.3264 13.4213 61.1294 13.5349C61.0376 13.588 60.9138 13.6186 60.7841 13.6204Z" stroke="#151515" stroke-linejoin="round"/>
<path fill-rule="evenodd" clip-rule="evenodd" d="M76.1195 35.489L75.8764 29.0172C75.8772 28.5795 75.7101 28.1646 75.41 27.7926C75.1675 27.4818 74.8251 27.1909 74.3831 26.9358L57.4855 17.1807C57.2894 17.0675 57.2901 16.8836 57.487 16.7699C57.5816 16.7153 57.7101 16.6845 57.8438 16.6844L66.2529 16.6818C66.9189 16.6816 67.5566 16.8339 68.0265 17.1051L81.4943 24.8801C85.4162 27.1442 85.4102 30.8184 81.4809 33.0868L76.9777 35.6865C76.7807 35.8002 76.4621 35.8005 76.2659 35.6873C76.1747 35.6346 76.122 35.5636 76.1195 35.489Z" stroke="#151515" stroke-linejoin="round"/>
<path fill-rule="evenodd" clip-rule="evenodd" d="M38.2144 44.3771L49.4219 44.2244C50.1799 44.2239 50.8989 44.1266 51.5438 43.9528C52.0824 43.8122 52.5872 43.6141 53.0301 43.3584L69.9611 33.5842C70.158 33.4705 70.4767 33.4701 70.6728 33.5834C70.7668 33.6376 70.8194 33.7113 70.8192 33.7884L70.8076 38.6431C70.8067 39.0286 70.5403 39.3988 70.0671 39.6719L56.5771 47.4597C52.6478 49.7281 46.2834 49.7316 42.3617 47.4676L37.8676 44.8732C37.6717 44.7601 37.6723 44.5761 37.8692 44.4625C37.9611 44.4094 38.0847 44.3788 38.2144 44.3771Z" stroke="#151515" stroke-linejoin="round"/>
<path fill-rule="evenodd" clip-rule="evenodd" d="M22.8824 22.5104L23.1255 28.9823C23.1248 29.4199 23.2919 29.8348 23.5919 30.2067C23.8343 30.5174 24.1765 30.8085 24.6185 31.0636L41.5164 40.8188C41.7125 40.932 41.7116 41.1158 41.5148 41.2294C41.42 41.2841 41.2916 41.3149 41.1579 41.3149L32.749 41.3176C32.0831 41.3178 31.4453 41.1656 30.9754 40.8943L17.5074 33.1192C13.5857 30.8552 13.5918 27.181 17.5211 24.9127L22.0244 22.3129C22.2213 22.1992 22.5398 22.1989 22.7359 22.3121C22.8272 22.3647 22.8796 22.4358 22.8824 22.5104Z" stroke="#151515" stroke-linejoin="round"/>
</svg>
