<svg viewBox="0 0 35 24" fill="none" xmlns="http://www.w3.org/2000/svg">
    <path
        d="M33.5128 3.75824C33.3162 3.03181 32.9328 2.36956 32.4007 1.83742C31.8685 1.30529 31.2063 0.921843 30.4798 0.725275C27.8205 0 17.1172 0 17.1172 0C17.1172 0 6.4139 0.021978 3.75456 0.747253C3.02814 0.943821 2.36588 1.32727 1.83374 1.8594C1.30161 2.39154 0.918164 3.05379 0.721595 3.78022C-0.0828005 8.50549 -0.394888 15.7055 0.743573 20.2418C0.940142 20.9682 1.32359 21.6304 1.85572 22.1626C2.38786 22.6947 3.05011 23.0782 3.77654 23.2747C6.43588 24 17.1392 24 17.1392 24C17.1392 24 27.8425 24 30.5018 23.2747C31.2282 23.0782 31.8905 22.6947 32.4226 22.1626C32.9548 21.6304 33.3382 20.9682 33.5348 20.2418C34.3831 15.5099 34.6447 8.31429 33.5128 3.75824Z"
        fill="#FF0000" />
    <path d="M13.7106 17.1428L22.5897 12L13.7106 6.85713V17.1428Z" fill="white" />
</svg>